<?xml version="1.0" encoding="iso-8859-1"?>
<!-- Generator: Adobe Illustrator 19.1.0, SVG Export Plug-In . SVG Version: 6.00 Build 0)  -->
<svg version="1.1" id="Capa_1" xmlns="http://www.w3.org/2000/svg" xmlns:xlink="http://www.w3.org/1999/xlink" x="0px" y="0px"
	 viewBox="0 0 475.141 475.141" style="enable-background:new 0 0 475.141 475.141;" xml:space="preserve">
<g>
	<g>
		<path d="M205.07,325.424c0.001-5.236,2.156-10.581,5.858-14.283s8.906-6,14.142-6h55v-5h-180h-20v40h20h105V325.424
			L205.07,325.424z"/>
		<path d="M207.757,410.141H65.07v-370h140v107.064c-1.034,6.308,1.181,13.061,5.75,17.531c0.052,0.052,0.104,0.104,0.156,0.156
			c0.093,0.084,0.187,0.026,0.281,0.108c4.467,4.274,10.994,6.14,17.094,5.14H335.07v60h40v-76.467
			c1.166-7.089-1.839-14.71-7.531-19.094L240.82,7.862c-3.78-4.859-9.906-7.945-16.062-7.86c-0.932,0.029-1.862,0.14-2.781,0.14
			H45.07c-5.236,0-10.439,2.298-14.142,6c-3.702,3.702-5.858,9.047-5.858,14.283v410c0.001,5.236,2.156,10.298,5.858,14
			c3.702,3.702,8.906,5.717,14.142,5.717h235v-30h-55C218.091,420.141,211.247,416.141,207.757,410.141L207.757,410.141z
			 M245.07,68.706l61.719,61.436H245.07V68.706L245.07,68.706z"/>
		<polygon points="80.07,355.141 80.07,395.141 100.07,395.141 205.07,395.141 205.07,355.141 100.07,355.141 		"/>
		<polygon points="320.07,230.141 320.07,190.141 300.07,190.141 100.07,190.141 80.07,190.141 80.07,230.141 100.07,230.141 
			300.07,230.141 		"/>
		<path d="M280.07,250.424c0.007-1.685,0.228-3.283,0.656-5.283H100.07h-20v40h20h180V250.424z"/>
		<polygon points="375.07,325.141 375.07,250.141 300.07,250.141 300.07,325.141 225.07,325.141 225.07,400.141 300.07,400.141 
			300.07,475.141 375.07,475.141 375.07,400.141 450.07,400.141 450.07,325.141 		"/>
	</g>
	<g>
	</g>
	<g>
	</g>
	<g>
	</g>
	<g>
	</g>
	<g>
	</g>
	<g>
	</g>
	<g>
	</g>
	<g>
	</g>
	<g>
	</g>
	<g>
	</g>
	<g>
	</g>
	<g>
	</g>
	<g>
	</g>
	<g>
	</g>
	<g>
	</g>
</g>
<g>
</g>
<g>
</g>
<g>
</g>
<g>
</g>
<g>
</g>
<g>
</g>
<g>
</g>
<g>
</g>
<g>
</g>
<g>
</g>
<g>
</g>
<g>
</g>
<g>
</g>
<g>
</g>
<g>
</g>
</svg>
