<?xml version="1.0" ?><svg height="32" id="icon" viewBox="0 0 32 32" width="32" xmlns="http://www.w3.org/2000/svg"><defs><style>
      .cls-1 {
        fill: none;
      }
    </style></defs><path d="M28,30H4a2.0021,2.0021,0,0,1-2-2V4A2.0021,2.0021,0,0,1,4,2H28a2.0021,2.0021,0,0,1,2,2V28A2.0021,2.0021,0,0,1,28,30ZM4,4V28H28V4Z" transform="translate(0 0)"/><rect height="7" width="2" x="13" y="7"/><rect height="7" width="2" x="8" y="7"/><path d="M22,14H20a2.0021,2.0021,0,0,1-2-2V9a2.0021,2.0021,0,0,1,2-2h2a2.0021,2.0021,0,0,1,2,2v3A2.0021,2.0021,0,0,1,22,14ZM20,9v3h2V9Z" transform="translate(0 0)"/><rect height="7" width="2" x="22" y="18"/><rect height="7" width="2" x="8" y="18"/><path d="M17,25H15a2.0021,2.0021,0,0,1-2-2V20a2.0021,2.0021,0,0,1,2-2h2a2.0021,2.0021,0,0,1,2,2v3A2.0021,2.0021,0,0,1,17,25Zm-2-5v3h2V20Z" transform="translate(0 0)"/><rect class="cls-1" data-name="&lt;Transparent Rectangle&gt;" height="32" id="_Transparent_Rectangle_" width="32"/></svg>