<?xml version="1.0" ?><svg data-name="Layer 1" id="Layer_1" viewBox="0 0 512 512" xmlns="http://www.w3.org/2000/svg"><path d="M477.64,244.15H440.92c8-26.25,19.07-45.37,36.75-45.42a11.85,11.85,0,0,0,0-23.7h0c-33.57.09-50.48,30.51-61.23,69.12H338c-6.86-78.76-18.73-157.52-70.15-167.85V34.36a11.85,11.85,0,0,0-23.7,0V76.71c-38,9.49-51.89,64.79-65.25,118.58-4.15,16.68-8.34,33.53-13.16,48.86H34.36a11.85,11.85,0,1,0,0,23.7H56.6c4.82,19.7,19.79,60.7,61.15,60.7,33.12,0,51.73-25.87,64.89-60.7h61.51V477.64a11.85,11.85,0,0,0,23.7,0V267.85h48.33c.2,2.59.41,5.21.62,7.77,6.28,79.53,11.69,148.23,53.6,148.23,36.75,0,46-53.42,55.75-110,2.64-15.3,5.4-31.13,8.7-46h42.79a11.85,11.85,0,1,0,0-23.7ZM117.75,304.84c-21.61,0-32-22-36.54-37h75.84C147.52,289.79,135.35,304.84,117.75,304.84Zm72.74-60.69c4.12-14,7.78-28.59,11.4-43.14,10.61-42.72,21.56-86.55,42.26-98.75V244.15Zm77.36,0V101.48c31.1,13.24,40.72,79,46.36,142.67Zm134.94,65.69c-7,40.24-15.6,90.31-32.39,90.31-20,0-25.77-73.06-30-126.4-.15-1.95-.31-3.94-.47-5.9h70.67C407.68,281.7,405.19,296,402.79,309.84Z"/><path d="M318,46.21h54.74a11.85,11.85,0,1,0,0-23.7H318a11.85,11.85,0,0,0,0,23.7Z"/><path d="M318,81.26h35.27a11.85,11.85,0,1,0,0-23.7H318a11.85,11.85,0,0,0,0,23.7Z"/></svg>