<?xml version="1.0" encoding="iso-8859-1"?>
<!-- Generator: Adobe Illustrator 22.0.1, SVG Export Plug-In . SVG Version: 6.00 Build 0)  -->
<svg version="1.1" id="Layer_1_1_" xmlns="http://www.w3.org/2000/svg" xmlns:xlink="http://www.w3.org/1999/xlink" x="0px" y="0px"
	 viewBox="0 0 64 64" style="enable-background:new 0 0 64 64;" xml:space="preserve">
<g id="Guide">
	<g>
	</g>
	<g>
	</g>
	<g>
	</g>
	<g>
	</g>
	<g>
	</g>
	<g>
	</g>
	<g>
	</g>
	<g>
	</g>
	<g>
	</g>
	<g>
	</g>
	<g>
	</g>
	<g>
	</g>
	<g>
	</g>
	<g>
	</g>
	<g>
	</g>
	<g>
	</g>
	<g>
	</g>
	<g>
	</g>
	<g>
	</g>
	<g>
	</g>
	<g>
	</g>
	<g>
	</g>
	<g>
	</g>
	<g>
	</g>
	<g>
	</g>
	<g>
	</g>
	<g>
	</g>
	<g>
	</g>
	<g>
	</g>
	<g>
	</g>
	<g>
	</g>
	<g>
	</g>
	<g>
	</g>
	<g>
	</g>
	<g>
	</g>
	<g>
	</g>
</g>
<path d="M50,2H37c-1.742,0-3.419,0.389-5,1.119C30.419,2.389,28.742,2,27,2H14C7.383,2,2,7.383,2,14s5.383,12,12,12h2v3.069
	C12.06,29.564,9,32.928,9,37v3c-2.757,0-5,2.243-5,5v12c0,2.757,2.243,5,5,5h16c2.757,0,5-2.243,5-5V45c0-2.757-2.243-5-5-5v-3
	c0-4.072-3.06-7.436-7-7.931V26h9c1.742,0,3.419-0.389,5-1.119C33.581,25.611,35.258,26,37,26h9v3.069c-3.94,0.495-7,3.859-7,7.931
	v3c-2.757,0-5,2.243-5,5v12c0,2.757,2.243,5,5,5h16c2.757,0,5-2.243,5-5V45c0-2.757-2.243-5-5-5v-3c0-4.072-3.06-7.436-7-7.931V26h2
	c6.617,0,12-5.383,12-12S56.617,2,50,2z M28,45v12c0,1.654-1.346,3-3,3H9c-1.654,0-3-1.346-3-3V45c0-1.654,1.346-3,3-3h16
	C26.654,42,28,43.346,28,45z M23,37v3H11v-3c0-3.309,2.691-6,6-6S23,33.691,23,37z M58,45v12c0,1.654-1.346,3-3,3H39
	c-1.654,0-3-1.346-3-3V45c0-1.654,1.346-3,3-3h16C56.654,42,58,43.346,58,45z M53,37v3H41v-3c0-3.309,2.691-6,6-6S53,33.691,53,37z
	 M31.544,22.899C30.118,23.63,28.589,24,27,24H14C8.486,24,4,19.514,4,14S8.486,4,14,4h13c0.961,0,1.898,0.135,2.806,0.403
	c-0.652,0.489-1.253,1.043-1.797,1.66C27.675,6.021,27.337,6,27,6H14c-4.411,0-8,3.589-8,8s3.589,8,8,8h13
	c0.54,0,1.081-0.054,1.608-0.162c1.562-0.319,2.981-1.095,4.106-2.244C34.188,18.089,35,16.102,35,14
	c0-0.394-0.038-0.783-0.094-1.166c-0.01-0.071-0.019-0.141-0.031-0.211c-0.064-0.368-0.153-0.728-0.266-1.08
	c-0.021-0.066-0.046-0.13-0.069-0.195c-0.256-0.726-0.616-1.412-1.074-2.04c-0.024-0.033-0.041-0.071-0.066-0.104
	c0.543-0.41,1.148-0.722,1.794-0.926C36.378,9.961,37,11.926,37,14c0,2.287-0.757,4.442-2.189,6.234
	C33.919,21.35,32.819,22.247,31.544,22.899z M26.618,20H14c-3.309,0-6-2.691-6-6s2.691-6,6-6h12.618C25.56,9.817,25,11.859,25,14
	S25.56,18.183,26.618,20z M31.058,13.212c0.008-0.063,0.017-0.126,0.028-0.188c0.042-0.256,0.095-0.51,0.169-0.757
	c0.003-0.011,0.008-0.021,0.011-0.032c0.073-0.238,0.165-0.469,0.268-0.695c0.026-0.057,0.052-0.114,0.079-0.17
	c0.113-0.231,0.237-0.456,0.38-0.672c0.002-0.003,0.005-0.007,0.007-0.01c0.002,0.003,0.005,0.007,0.007,0.01
	c0.143,0.215,0.267,0.441,0.38,0.671c0.028,0.057,0.054,0.114,0.08,0.171c0.102,0.226,0.194,0.457,0.267,0.694
	c0.003,0.011,0.008,0.021,0.011,0.032c0.074,0.247,0.127,0.5,0.169,0.757c0.01,0.063,0.019,0.126,0.028,0.19
	C32.976,13.473,33,13.734,33,14c0,0.265-0.024,0.527-0.058,0.786c-0.008,0.064-0.018,0.127-0.028,0.191
	c-0.042,0.255-0.095,0.508-0.169,0.755c-0.004,0.013-0.01,0.026-0.014,0.039c-0.072,0.235-0.163,0.463-0.264,0.686
	c-0.027,0.059-0.053,0.117-0.082,0.175c-0.113,0.229-0.236,0.454-0.378,0.669c-0.002,0.003-0.005,0.007-0.008,0.01
	c-0.002-0.004-0.005-0.007-0.008-0.01c-0.142-0.215-0.266-0.44-0.378-0.669c-0.028-0.058-0.055-0.116-0.081-0.174
	c-0.101-0.224-0.192-0.452-0.265-0.687c-0.004-0.013-0.01-0.026-0.014-0.039c-0.074-0.246-0.127-0.5-0.169-0.755
	c-0.01-0.063-0.019-0.126-0.028-0.189C31.024,14.528,31,14.266,31,14C31,13.734,31.024,13.472,31.058,13.212z M37.382,8H50
	c3.309,0,6,2.691,6,6s-2.691,6-6,6H37.382C38.44,18.183,39,16.141,39,14S38.44,9.817,37.382,8z M50,24H37
	c-0.961,0-1.898-0.135-2.806-0.403c0.652-0.489,1.253-1.043,1.797-1.66C36.325,21.979,36.663,22,37,22h13c4.411,0,8-3.589,8-8
	s-3.589-8-8-8H37c-0.54,0-1.081,0.054-1.608,0.162c-1.562,0.319-2.981,1.095-4.106,2.244C29.812,9.911,29,11.897,29,14
	c0,0.394,0.038,0.782,0.094,1.166c0.01,0.071,0.019,0.141,0.031,0.211c0.064,0.368,0.153,0.728,0.267,1.08
	c0.021,0.066,0.046,0.13,0.069,0.195c0.255,0.726,0.615,1.411,1.074,2.039c0.025,0.034,0.042,0.072,0.067,0.106
	c-0.543,0.41-1.148,0.722-1.794,0.926C27.622,18.039,27,16.074,27,14c0-2.287,0.757-4.442,2.189-6.234
	c0.892-1.116,1.991-2.013,3.267-2.666C33.882,4.37,35.411,4,37,4h13c5.514,0,10,4.486,10,10S55.514,24,50,24z"/>
<path d="M17,44c-2.757,0-5,2.243-5,5c0,1.563,0.754,3.041,2,3.979V57c0,0.552,0.447,1,1,1h4c0.553,0,1-0.448,1-1v-4.021
	c1.246-0.939,2-2.416,2-3.979C22,46.243,19.757,44,17,44z M18.497,51.581C18.189,51.76,18,52.089,18,52.445V56h-2v-3.555
	c0-0.356-0.189-0.685-0.497-0.864C14.562,51.033,14,50.068,14,49c0-1.654,1.346-3,3-3s3,1.346,3,3
	C20,50.068,19.438,51.033,18.497,51.581z"/>
<path d="M47,44c-2.757,0-5,2.243-5,5c0,1.563,0.754,3.041,2,3.979V57c0,0.552,0.447,1,1,1h4c0.553,0,1-0.448,1-1v-4.021
	c1.246-0.939,2-2.416,2-3.979C52,46.243,49.757,44,47,44z M48.497,51.581C48.189,51.76,48,52.089,48,52.445V56h-2v-3.555
	c0-0.356-0.189-0.685-0.497-0.864C44.562,51.033,44,50.068,44,49c0-1.654,1.346-3,3-3s3,1.346,3,3
	C50,50.068,49.438,51.033,48.497,51.581z"/>
<rect x="24" y="56" width="2" height="2"/>
<rect x="54" y="56" width="2" height="2"/>
</svg>
