<?xml version="1.0" ?><svg viewBox="0 0 22.175 22.175" xmlns="http://www.w3.org/2000/svg"><g data-name="Layer 2" id="Layer_2"><g data-name="Layer 1" id="Layer_1-2"><path d="M22.077,17.77l-6.716-6.71L20.6,5.822a.324.324,0,0,0,.086-.146L22.162.446a.336.336,0,0,0-.415-.415L16.507,1.51a.336.336,0,0,0-.145.086L11.126,6.829,4.389.1a.336.336,0,0,0-.475,0L.1,3.912a.337.337,0,0,0,0,.475l6.736,6.731L2.358,15.591c-.168-.195-.431-.44-.674-.2s0,.506.2.672L.444,17.5a1.524,1.524,0,0,0,0,2.149l2.085,2.078a1.525,1.525,0,0,0,2.152,0l1.438-1.436c.161.193.422.407.652.176s.017-.491-.178-.651l4.473-4.47,6.716,6.71a.336.336,0,0,0,.475,0l3.818-3.814A.34.34,0,0,0,22.077,17.77ZM21.352.841l-1.158,4.1L17.243,2ZM.81,4.149,4.152.811,5.445,2.1,4.223,3.324A.336.336,0,1,0,4.7,3.8L5.92,2.578,7.214,3.87,5.1,5.988a.336.336,0,1,0,.475.475L7.689,4.345,8.982,5.637,7.759,6.859a.336.336,0,0,0,.476.475L9.458,6.112,10.65,7.3,7.309,10.643ZM16.6,2.308l1.407,1.4L4.239,17.468l-1.406-1.4ZM4.208,21.255a.853.853,0,0,1-1.2,0L.92,19.177a.851.851,0,0,1,0-1.2l1.44-1.439,3.286,3.279ZM6.12,19.344l-1.405-1.4L18.482,4.186l1.4,1.4Zm11.9,2-6.478-6.472,3.341-3.339,1.172,1.171-2.119,2.118a.336.336,0,0,0,.476.475l2.119-2.118,1.293,1.292L16.6,15.694a.336.336,0,0,0,.476.475L18.3,14.948l1.293,1.292-2.118,2.118a.336.336,0,0,0,.474.475l2.12-2.118,1.293,1.292Z" data-name="learning tool" id="learning_tool"/></g></g></svg>