<?xml version="1.0" ?><svg height="32" id="icon" viewBox="0 0 32 32" width="32" xmlns="http://www.w3.org/2000/svg"><defs><style>.cls-1{fill:none;}</style></defs><title/><path d="M25.8289,13.1155A10.02,10.02,0,0,0,16,5.0005V7a8.0233,8.0233,0,0,1,7.8649,6.4934l.2591,1.346,1.3488.2441A5.5019,5.5019,0,0,1,24.5076,26H16v2h8.5076a7.5019,7.5019,0,0,0,1.3213-14.8845Z"/><rect height="2" width="6" x="8" y="24"/><rect height="2" width="2" x="4" y="24"/><rect height="2" width="8" x="6" y="20"/><rect height="2" width="2" x="2" y="20"/><rect height="2" width="6" x="8" y="16"/><rect height="2" width="2" x="4" y="16"/><rect height="2" width="4" x="10" y="12"/><rect height="2" width="2" x="6" y="12"/><rect height="2" width="2" x="12" y="8"/><rect class="cls-1" data-name="&lt;Transparent Rectangle&gt;" height="32" id="_Transparent_Rectangle_" width="32"/></svg>