<?xml version="1.0" encoding="iso-8859-1"?>
<!-- Generator: Adobe Illustrator 16.0.0, SVG Export Plug-In . SVG Version: 6.00 Build 0)  -->
<!DOCTYPE svg PUBLIC "-//W3C//DTD SVG 1.1//EN" "http://www.w3.org/Graphics/SVG/1.1/DTD/svg11.dtd">
<svg version="1.1" id="Capa_1" xmlns="http://www.w3.org/2000/svg" xmlns:xlink="http://www.w3.org/1999/xlink" x="0px" y="0px"
	 width="612px" height="612px" viewBox="0 0 612 612" style="enable-background:new 0 0 612 612;" xml:space="preserve">
<g>
	<g>
		<path d="M539.258,213.715H485.83V53.429C485.83,24.966,455.152,0,424.911,0H182.044c-4.479,0-7.694,2.069-10.453,5.605
			l-62.609,80.822l-85.32,103.447c-2.526,3.07-3.575,6.975-3.167,10.803c-1.884,2.545-0.952,5.653-0.952,8.85v349.044
			c0,30.464,17.379,53.429,45.929,53.429h359.438c30.24,0,60.918-24.966,60.918-53.429V408h53.429
			c29.512,0,53.429-23.927,53.429-53.429v-87.429C592.686,237.641,568.77,213.715,539.258,213.715z M563.543,354.571
			c0,13.416-10.87,24.286-24.285,24.286H354.686c-13.415,0-24.285-10.87-24.285-24.286v-87.429c0-13.415,10.87-24.285,24.285-24.285
			h184.572c13.415,0,24.285,10.87,24.285,24.285V354.571z M174.972,57.236v98.387c0,12.716-21.672,28.948-35.389,28.948H71.398
			l42.48-56.071L174.972,57.236z M456.686,558.571c0,12.483-17.582,24.286-31.775,24.286H65.473
			c-14.377,0-16.786-12.59-16.786-24.286V214.54l0.622-0.825h90.275c29.911,0,64.532-29.328,64.532-58.092V29.143h220.796
			c14.193,0,31.775,11.803,31.775,24.286v160.286h-102c-29.512,0-53.428,23.926-53.428,53.428v87.429
			c0,29.502,23.916,53.429,53.428,53.429h102V558.571z"/>
		<path d="M370.375,300.365c-1.788,0-3.206,0.584-4.245,1.778c-1.04,1.186-1.564,2.963-1.564,5.333v32.058
			c0,7.616-2.594,11.424-7.781,11.424c-1.952,0-3.458-0.438-4.507-1.302c-1.06-0.874-1.808-1.914-2.264-3.128
			c-0.447-1.214-0.884-2.827-1.331-4.857c-0.428-1.903-1.029-3.303-1.826-4.196c-0.787-0.895-1.962-1.351-3.517-1.351
			c-1.603,0-2.924,0.495-3.944,1.477c-1.039,0.981-1.554,2.38-1.554,4.216c0,1.749,0.271,3.585,0.806,5.508
			c0.515,1.914,1.205,3.623,2.04,5.091c1.622,2.769,3.73,4.779,6.354,6.003c2.613,1.244,5.887,1.865,9.821,1.865
			c4.352,0,8.033-0.894,11.064-2.672c3.031-1.768,5.197-4.254,6.519-7.44c0.796-1.904,1.302-3.779,1.524-5.615
			c0.224-1.846,0.341-4.08,0.341-6.722v-30.357c0-2.37-0.534-4.148-1.613-5.333C373.639,300.949,372.202,300.365,370.375,300.365z"
			/>
		<path d="M427.952,305.66c-1.729-1.525-3.779-2.623-6.149-3.283c-2.399-0.681-5.828-1.03-10.277-1.03h-15.058
			c-2.584,0-4.469,0.554-5.653,1.661c-1.186,1.117-1.778,2.953-1.778,5.537v44.657c0,2.331,0.544,4.08,1.623,5.274
			c1.078,1.205,2.506,1.807,4.274,1.807c1.671,0,3.079-0.611,4.177-1.826c1.107-1.204,1.661-2.982,1.661-5.333v-16.397h10.754
			c7.198,0,12.609-1.525,16.242-4.565c3.633-3.041,5.459-7.51,5.459-13.425c0-2.76-0.446-5.256-1.351-7.461
			C430.983,309.051,429.681,307.186,427.952,305.66z M419.87,324.156c-0.981,1.32-2.39,2.273-4.255,2.846
			c-1.855,0.583-4.168,0.875-6.927,0.875h-7.917v-17.71h7.917c5.236,0,8.704,0.864,10.385,2.565
			c1.506,1.611,2.254,3.691,2.254,6.246C421.327,321.115,420.84,322.835,419.87,324.156z"/>
		<path d="M482.119,349.967h-27.346v-16.485h24.344c1.816,0,3.167-0.407,4.031-1.243c0.864-0.835,1.302-1.895,1.302-3.225
			c0-1.312-0.447-2.371-1.321-3.177c-0.884-0.807-2.225-1.204-4.012-1.204h-24.344V310.4h26.433c1.874,0,3.264-0.417,4.177-1.243
			c0.913-0.825,1.36-1.923,1.36-3.303c0-1.341-0.447-2.429-1.36-3.264c-0.913-0.825-2.303-1.243-4.177-1.243h-30.979
			c-1.661,0-3.03,0.252-4.1,0.738c-1.059,0.476-1.846,1.263-2.341,2.331c-0.505,1.068-0.758,2.438-0.758,4.128v43.56
			c0,2.525,0.554,4.361,1.681,5.488c1.117,1.137,2.953,1.7,5.518,1.7h31.893c1.846,0,3.234-0.428,4.177-1.292
			c0.923-0.846,1.39-1.962,1.39-3.332c0-1.428-0.467-2.564-1.39-3.419C485.353,350.395,483.964,349.967,482.119,349.967z"/>
		<path d="M546.155,329.295c-1.137-0.291-2.525-0.428-4.157-0.428h-13.318c-1.603,0-2.876,0.408-3.818,1.254
			c-0.932,0.845-1.398,1.913-1.398,3.205c0,1.583,0.563,2.71,1.681,3.361c1.117,0.65,2.778,0.99,4.964,0.99h9.083v9.404
			c-2.448,1.32-4.867,2.331-7.247,3.05c-2.39,0.699-4.935,1.059-7.645,1.059c-5.586,0-9.948-1.826-13.066-5.488
			c-3.118-3.663-4.682-8.898-4.682-15.688c0-3.147,0.397-6.004,1.204-8.588s1.962-4.76,3.478-6.537
			c1.506-1.778,3.342-3.138,5.479-4.07c2.127-0.942,4.546-1.399,7.266-1.399c2.633,0,4.809,0.398,6.509,1.186
			c1.69,0.786,3.041,1.758,4.051,2.914c0.991,1.165,2.225,2.875,3.672,5.148c0.525,0.709,1.186,1.263,1.963,1.661
			c0.767,0.398,1.583,0.583,2.429,0.583c1.524,0,2.836-0.515,3.924-1.555c1.098-1.039,1.643-2.292,1.643-3.778
			c0-1.36-0.477-2.935-1.429-4.702c-0.942-1.769-2.351-3.438-4.226-5.022c-1.875-1.583-4.304-2.895-7.305-3.935
			c-3.012-1.029-6.46-1.554-10.355-1.554c-4.751,0-8.986,0.689-12.735,2.069c-3.74,1.379-6.917,3.38-9.53,5.993
			c-2.604,2.613-4.575,5.79-5.926,9.521c-1.34,3.74-2.011,7.868-2.011,12.376c0,4.585,0.689,8.732,2.079,12.443
			c1.379,3.721,3.361,6.888,5.945,9.491s5.702,4.595,9.364,5.974c3.662,1.37,7.723,2.051,12.172,2.051
			c3.828,0,7.354-0.438,10.599-1.303c3.244-0.874,6.615-2.253,10.122-4.157c1.205-0.651,2.205-1.331,2.982-2.06
			c0.777-0.699,1.302-1.496,1.603-2.39c0.282-0.864,0.438-2.06,0.438-3.526v-11.113c0-2.001-0.359-3.497-1.059-4.498
			C548.205,330.228,547.282,329.586,546.155,329.295z"/>
	</g>
</g>
<g>
</g>
<g>
</g>
<g>
</g>
<g>
</g>
<g>
</g>
<g>
</g>
<g>
</g>
<g>
</g>
<g>
</g>
<g>
</g>
<g>
</g>
<g>
</g>
<g>
</g>
<g>
</g>
<g>
</g>
</svg>
