<?xml version="1.0" encoding="iso-8859-1"?>
<!-- Generator: Adobe Illustrator 16.0.0, SVG Export Plug-In . SVG Version: 6.00 Build 0)  -->
<!DOCTYPE svg PUBLIC "-//W3C//DTD SVG 1.1//EN" "http://www.w3.org/Graphics/SVG/1.1/DTD/svg11.dtd">
<svg version="1.1" id="Capa_1" xmlns="http://www.w3.org/2000/svg" xmlns:xlink="http://www.w3.org/1999/xlink" x="0px" y="0px"
	 width="612px" height="612px" viewBox="0 0 612 612" style="enable-background:new 0 0 612 612;" xml:space="preserve">
<g>
	<g>
		<g id="group-10svg">
			<path id="path-1" d="M365.268,612h-204c-51.029,0-88.41-41.402-88.41-92.286V92.286C72.857,41.402,110.238,0,161.268,0h281.725
				c50.727,0,96.15,41.402,96.15,92.286v310.187c0,3.283-3.186,6.499-5.244,9.063L377.711,606.502
				C374.943,609.979,369.717,612,365.268,612z M161.268,29.143C126.306,29.143,102,57.47,102,92.286v427.428
				c0,34.816,24.305,63.144,59.267,63.144h196.977L510,397.373V92.286c0-34.816-32.348-63.143-67.008-63.143H161.268z"/>
			<path id="path-2" d="M364.996,609.911c-1.623,0-1.186-0.271-2.779-0.835c-5.828-2.06-7.645-7.558-7.645-13.736V456.377
				c0-29.861,23.703-58.091,53.176-58.091H512.42c5.613,0,10.725,3.225,13.152,8.286c2.41,5.07,1.709,11.074-1.816,15.436
				L376.332,604.491C373.506,607.988,369.309,609.911,364.996,609.911z M407.748,427.429c-13.172,0-24.033,15.426-24.033,28.948
				v97.735l98.201-126.684H407.748z"/>
			<path id="path-3" d="M378.09,333.676c-20.779,0-40.314-8.092-54.992-22.789c-30.328-30.329-30.328-79.667,0-109.995
				c14.678-14.688,34.213-22.78,54.992-22.78s40.295,8.092,54.992,22.78c30.328,30.328,30.328,79.667,0,109.995
				C418.395,325.584,398.869,333.676,378.09,333.676z M378.09,207.254c-12.998,0-25.209,5.051-34.389,14.241
				c-18.961,18.962-18.961,49.824,0,68.787c9.18,9.18,21.391,14.251,34.389,14.251c12.988,0,25.209-5.071,34.389-14.251
				c18.963-18.962,18.963-49.825,0-68.787C403.299,212.306,391.078,207.254,378.09,207.254z"/>
			<path id="path-4" d="M480.809,373.116c-3.73,0-7.461-1.419-10.307-4.265L428.4,326.73c-5.693-5.692-5.693-14.912,0-20.604
				c5.684-5.693,14.912-5.693,20.604,0l42.111,42.12c5.693,5.693,5.693,14.912,0,20.604
				C488.27,371.697,484.539,373.116,480.809,373.116z"/>
		</g>
	</g>
</g>
<g>
</g>
<g>
</g>
<g>
</g>
<g>
</g>
<g>
</g>
<g>
</g>
<g>
</g>
<g>
</g>
<g>
</g>
<g>
</g>
<g>
</g>
<g>
</g>
<g>
</g>
<g>
</g>
<g>
</g>
</svg>
