<?xml version="1.0" ?><svg height="256" viewBox="0 0 256 256" width="256" xmlns="http://www.w3.org/2000/svg"><title/><g id="sys"><g><path d="M184,168a8.009,8.009,0,0,0,8-8V112a8.009,8.009,0,0,0-8-8H48a8.009,8.009,0,0,0-8,8v48a8.009,8.009,0,0,0,8,8Zm-33.031-27.5a5.247,5.247,0,0,0-2.289-1.364q-1.116-.387-5.092-1.375-5.112-1.267-7.176-3.115a8.194,8.194,0,0,1-2.9-6.338,8.094,8.094,0,0,1,1.365-4.5,8.528,8.528,0,0,1,3.932-3.19,15.753,15.753,0,0,1,6.2-1.1q5.93,0,8.928,2.6a9.174,9.174,0,0,1,3.146,6.939l-6.359.279a5.4,5.4,0,0,0-1.75-3.491,6.415,6.415,0,0,0-4.029-1.063,7.269,7.269,0,0,0-4.34,1.139,2.3,2.3,0,0,0-1.01,1.955,2.419,2.419,0,0,0,.945,1.912q1.2,1.011,5.844,2.105a30.867,30.867,0,0,1,6.865,2.267,8.844,8.844,0,0,1,3.48,3.2,9.918,9.918,0,0,1-.248,10.087,9,9,0,0,1-4.254,3.513,17.829,17.829,0,0,1-6.854,1.149q-5.972,0-9.174-2.761a12.014,12.014,0,0,1-3.824-8.046l6.188-.6a7.551,7.551,0,0,0,2.268,4.576,6.847,6.847,0,0,0,4.607,1.461,7.088,7.088,0,0,0,4.631-1.3,3.869,3.869,0,0,0,1.557-3.04A2.874,2.874,0,0,0,150.969,140.5Zm-42.361-20.442,7.412,12.461,7.262-12.461h7.326l-11.58,18.283v13.213h-6.338V138.3l-11.537-18.24ZM91.833,140.5a5.242,5.242,0,0,0-2.288-1.364q-1.118-.387-5.092-1.375-5.114-1.267-7.176-3.115a8.194,8.194,0,0,1-2.9-6.338,8.1,8.1,0,0,1,1.364-4.5,8.538,8.538,0,0,1,3.932-3.19,15.758,15.758,0,0,1,6.2-1.1q5.93,0,8.927,2.6a9.178,9.178,0,0,1,3.147,6.939l-6.359.279a5.4,5.4,0,0,0-1.751-3.491,6.412,6.412,0,0,0-4.028-1.063,7.267,7.267,0,0,0-4.34,1.139,2.293,2.293,0,0,0-1.01,1.955,2.416,2.416,0,0,0,.945,1.912q1.2,1.011,5.844,2.105a30.856,30.856,0,0,1,6.864,2.267,8.844,8.844,0,0,1,3.48,3.2,9.915,9.915,0,0,1-.247,10.087,9.014,9.014,0,0,1-4.254,3.513,17.836,17.836,0,0,1-6.854,1.149q-5.974,0-9.174-2.761a12.005,12.005,0,0,1-3.824-8.046l6.188-.6a7.545,7.545,0,0,0,2.267,4.576,6.85,6.85,0,0,0,4.608,1.461,7.085,7.085,0,0,0,4.63-1.3,3.868,3.868,0,0,0,1.558-3.04A2.869,2.869,0,0,0,91.833,140.5Z"/><path d="M200,8H64A16.018,16.018,0,0,0,48,24V96h8V24a8.009,8.009,0,0,1,8-8H200a8.009,8.009,0,0,1,8,8V191.029a8.1,8.1,0,0,1-.065.971H172a12.013,12.013,0,0,0-12,12v35.935a8.1,8.1,0,0,1-.971.065H64a8.009,8.009,0,0,1-8-8V176H48v56a16.018,16.018,0,0,0,16,16h95.029a15.893,15.893,0,0,0,11.313-4.687l40.971-40.971A15.893,15.893,0,0,0,216,191.029V24A16.018,16.018,0,0,0,200,8Z"/></g></g></svg>