<?xml version="1.0" encoding="iso-8859-1"?>
<!-- Generator: Adobe Illustrator 16.0.0, SVG Export Plug-In . SVG Version: 6.00 Build 0)  -->
<!DOCTYPE svg PUBLIC "-//W3C//DTD SVG 1.1//EN" "http://www.w3.org/Graphics/SVG/1.1/DTD/svg11.dtd">
<svg version="1.1" id="Capa_1" xmlns="http://www.w3.org/2000/svg" xmlns:xlink="http://www.w3.org/1999/xlink" x="0px" y="0px"
	 width="612px" height="612px" viewBox="0 0 612 612" style="enable-background:new 0 0 612 612;" xml:space="preserve">
<g>
	<path d="M549.125,233.143h-72.856V53.429C476.268,24.966,444.979,0,414.018,0H171.162c-4.517,0-7.732,2.088-10.491,5.654
		l-64.385,83.84L12.809,189.827c-3.043,3.657-4.065,8.518-2.882,13.02c-0.458,2.056,0.056,4.345,0.056,6.68v349.044
		C9.982,589.531,26.342,612,54.59,612h359.429c30.96,0,62.25-24.966,62.249-53.428V427.429h72.856
		c29.513,0,53.429-23.927,53.429-53.429v-87.429C602.553,257.069,578.637,233.143,549.125,233.143z M573.411,286.571V374
		c0,13.415-10.87,24.286-24.286,24.286H364.553c-13.404,0-24.284-10.871-24.284-24.286v-87.429c0-13.415,10.88-24.286,24.284-24.286
		h184.572C562.542,262.285,573.412,273.156,573.411,286.571L573.411,286.571z M165.411,56.955v98.658
		c0,12.454-22.712,28.958-36.71,28.958H61.607l43.08-57.369L165.411,56.955z M447.124,558.572c0,12.26-18.486,24.286-33.105,24.286
		H54.589c-14.474,0-15.465-13.085-15.465-24.286V214.511l0.599-0.797h88.978c27.773,0,65.853-26.811,65.853-58.101V29.143h219.464
		c14.619,0,33.105,12.026,33.105,24.286v179.714h-82.57c-29.502,0-53.429,23.926-53.429,53.428V374
		c0,29.502,23.927,53.429,53.429,53.429h82.57V558.572z"/>
	<path d="M431.224,364.742h-36.808l33.389-39.751c2.604-3.03,4.323-5.235,5.179-6.605c0.854-1.34,1.271-3.167,1.271-5.44
		c0-4.778-2.555-7.168-7.685-7.168h-39.557c-2.146,0-3.769,0.485-4.856,1.497c-1.088,0.98-1.632,2.293-1.632,3.904
		c0,1.555,0.544,2.809,1.632,3.76c1.087,0.951,2.71,1.418,4.856,1.418h30.696l-35.729,42.733c-0.564,0.66-1.235,1.437-1.989,2.351
		c-0.758,0.894-1.341,1.651-1.77,2.215c-0.428,0.593-0.768,1.214-1.02,1.885c-0.253,0.66-0.379,1.398-0.379,2.176
		c0,2.321,0.767,4.158,2.312,5.527c1.565,1.38,3.866,2.068,6.928,2.068h45.16c2.177,0,3.809-0.494,4.896-1.467
		c1.068-0.98,1.612-2.312,1.612-3.982c0-1.612-0.544-2.885-1.612-3.778C435.034,365.18,433.401,364.742,431.224,364.742z"/>
	<path d="M454.138,304.592c-2.059,0-3.739,0.709-5.021,2.127c-1.302,1.428-1.962,3.565-1.962,6.411v54.779
		c0,2.847,0.67,4.993,1.971,6.431c1.312,1.447,2.983,2.166,5.013,2.166c2.118,0,3.839-0.718,5.14-2.146
		c1.311-1.418,1.981-3.564,1.981-6.449v-54.779c0-2.885-0.67-5.021-1.981-6.431C457.977,305.301,456.256,304.592,454.138,304.592z"
		/>
	<path d="M523.695,310.954c-2.07-1.847-4.537-3.147-7.383-3.953c-2.866-0.817-6.975-1.225-12.327-1.225h-18.061
		c-3.108,0-5.372,0.661-6.8,1.992c-1.418,1.321-2.118,3.545-2.118,6.635v53.604c0,2.788,0.643,4.896,1.935,6.334
		c1.302,1.447,3.002,2.166,5.118,2.166c2.03,0,3.701-0.738,5.032-2.186c1.321-1.457,1.991-3.584,1.991-6.411v-19.673h12.901
		c8.636,0,15.144-1.844,19.506-5.488c4.36-3.662,6.548-9.014,6.548-16.105c0-3.322-0.545-6.295-1.613-8.957
		C527.337,315.034,525.763,312.77,523.695,310.954z M513.999,333.15c-1.175,1.574-2.875,2.711-5.1,3.41
		c-2.234,0.69-5.014,1.049-8.335,1.049h-9.481v-21.254h9.481c6.305,0,10.462,1.029,12.493,3.078c1.797,1.934,2.69,4.439,2.69,7.49
		C515.748,329.489,515.165,331.559,513.999,333.15z"/>
</g>
<g>
</g>
<g>
</g>
<g>
</g>
<g>
</g>
<g>
</g>
<g>
</g>
<g>
</g>
<g>
</g>
<g>
</g>
<g>
</g>
<g>
</g>
<g>
</g>
<g>
</g>
<g>
</g>
<g>
</g>
</svg>
