<?xml version="1.0" encoding="iso-8859-1"?>
<!-- Generator: Adobe Illustrator 16.0.0, SVG Export Plug-In . SVG Version: 6.00 Build 0)  -->
<!DOCTYPE svg PUBLIC "-//W3C//DTD SVG 1.1//EN" "http://www.w3.org/Graphics/SVG/1.1/DTD/svg11.dtd">
<svg version="1.1" id="Capa_1" xmlns="http://www.w3.org/2000/svg" xmlns:xlink="http://www.w3.org/1999/xlink" x="0px" y="0px"
	 width="612px" height="612px" viewBox="0 0 612 612" style="enable-background:new 0 0 612 612;" xml:space="preserve">
<g>
	<g>
		<path d="M544.091,233.143h-63.143V53.429C480.949,24.966,449.921,0,419.263,0H176.406c-4.507,0-7.713,2.078-10.472,5.634
			l-63.707,82.649L18.043,189.846c-2.817,3.4-3.837,7.82-3.021,12.046c-0.952,2.302-0.359,4.925-0.359,7.636v349.044
			c0,30.96,16.592,53.429,45.172,53.429h359.428c30.659,0,61.687-24.966,61.687-53.429V427.429h63.143
			c29.502,0,53.429-23.927,53.429-53.429v-87.429C597.52,257.069,573.594,233.143,544.091,233.143z M568.377,374
			c0,13.416-10.87,24.285-24.286,24.285H359.52c-13.415,0-24.285-10.869-24.285-24.285v-87.429c0-13.415,10.87-24.286,24.285-24.286
			h184.571c13.416,0,24.286,10.871,24.286,24.286V374z M170.091,57.071v98.542c0,12.726-22.1,28.958-36.156,28.958H66.382
			l42.878-56.877L170.091,57.071z M451.806,558.571c0,12.259-18.215,24.286-32.543,24.286H59.834
			c-14.892,0-16.028-13.086-16.028-24.286V214.521l0.611-0.806h89.518c30.289,0,65.299-29.328,65.299-58.102V29.143h220.029
			c14.328,0,32.543,12.026,32.543,24.286v179.714H359.52c-29.512,0-53.429,23.927-53.429,53.429V374
			c0,29.502,23.917,53.429,53.429,53.429h92.286V558.571z"/>
		<path d="M404.099,310.954c-2.069-1.846-4.527-3.147-7.373-3.954c-2.886-0.815-6.994-1.224-12.338-1.224H366.32
			c-3.099,0-5.362,0.661-6.78,1.991c-1.428,1.321-2.137,3.546-2.137,6.635v53.604c0,2.788,0.65,4.896,1.942,6.334
			c1.292,1.447,3.002,2.166,5.129,2.166c2.021,0,3.701-0.738,5.022-2.186c1.331-1.457,1.991-3.584,1.991-6.411v-19.672h12.9
			c8.637,0,15.136-1.846,19.497-5.488c4.371-3.662,6.548-9.015,6.548-16.106c0-3.322-0.545-6.295-1.613-8.956
			C407.742,315.034,406.178,312.771,404.099,310.954z M394.404,333.151c-1.175,1.573-2.875,2.71-5.109,3.41
			c-2.225,0.689-4.993,1.049-8.315,1.049h-9.491v-21.255h9.491c6.285,0,10.442,1.03,12.473,3.08
			c1.808,1.933,2.701,4.439,2.701,7.489C396.153,329.489,395.57,331.559,394.404,333.151z"/>
		<path d="M474.042,304.592c-1.962,0-3.517,0.67-4.672,2.011c-1.156,1.351-1.729,3.361-1.729,6.062v41.354l-27.083-40.975
			c-0.758-1.215-1.506-2.361-2.215-3.478c-0.709-1.099-1.399-2.011-2.089-2.691c-0.67-0.699-1.467-1.253-2.37-1.671
			c-0.903-0.398-1.981-0.611-3.245-0.611c-1.612,0-3.118,0.438-4.507,1.35c-1.39,0.895-2.39,2.07-2.982,3.488
			c-0.515,1.292-0.758,3.079-0.758,5.353v53.661c0,2.613,0.593,4.604,1.797,5.994c1.195,1.359,2.798,2.069,4.789,2.069
			c1.934,0,3.517-0.69,4.75-2.05c1.234-1.351,1.846-3.361,1.846-6.014v-40.761l26.423,40.509c0.758,1.127,1.516,2.205,2.273,3.244
			c0.758,1.068,1.574,1.992,2.468,2.788c0.884,0.777,1.826,1.37,2.846,1.729c1.011,0.359,2.147,0.554,3.42,0.554
			c5.052,0,7.587-3.06,7.587-9.171v-54.672c0-2.7-0.593-4.711-1.759-6.061C477.656,305.262,476.062,304.592,474.042,304.592z"/>
		<path d="M554.961,339.32c-1.369-0.359-3.021-0.535-4.983-0.535h-15.979c-1.934,0-3.458,0.516-4.585,1.516
			c-1.117,1.03-1.681,2.303-1.681,3.857c0,1.895,0.68,3.244,2.011,4.021c1.351,0.797,3.332,1.194,5.965,1.194h10.909v11.288
			c-2.943,1.573-5.849,2.788-8.714,3.643c-2.856,0.855-5.916,1.292-9.171,1.292c-6.712,0-11.938-2.205-15.679-6.605
			c-3.75-4.381-5.624-10.666-5.624-18.816c0-3.779,0.485-7.198,1.447-10.308c0.962-3.089,2.36-5.712,4.177-7.858
			c1.816-2.117,4.012-3.749,6.567-4.876c2.564-1.117,5.469-1.682,8.732-1.682c3.157,0,5.761,0.467,7.801,1.419
			c2.03,0.952,3.652,2.127,4.857,3.507c1.204,1.408,2.671,3.458,4.42,6.168c0.621,0.855,1.408,1.516,2.341,1.992
			c0.942,0.476,1.904,0.719,2.924,0.719c1.826,0,3.4-0.622,4.712-1.875c1.321-1.253,1.972-2.749,1.972-4.537
			c0-1.632-0.573-3.526-1.71-5.634c-1.136-2.118-2.836-4.138-5.07-6.032c-2.254-1.895-5.168-3.469-8.772-4.722
			c-3.613-1.233-7.752-1.864-12.434-1.864c-5.693,0-10.783,0.815-15.271,2.486c-4.497,1.651-8.306,4.061-11.434,7.198
			c-3.128,3.128-5.498,6.937-7.11,11.414c-1.613,4.498-2.419,9.452-2.419,14.863c0,5.498,0.825,10.472,2.486,14.931
			c1.651,4.459,4.041,8.247,7.141,11.385c3.089,3.128,6.839,5.518,11.239,7.17c4.391,1.631,9.258,2.467,14.61,2.467
			c4.585,0,8.82-0.534,12.716-1.573c3.886-1.05,7.927-2.701,12.143-4.974c1.447-0.797,2.643-1.613,3.575-2.468
			c0.942-0.854,1.573-1.816,1.923-2.885c0.341-1.04,0.525-2.468,0.525-4.226v-13.338c0-2.399-0.418-4.197-1.264-5.411
			C557.419,340.438,556.322,339.66,554.961,339.32z"/>
	</g>
</g>
<g>
</g>
<g>
</g>
<g>
</g>
<g>
</g>
<g>
</g>
<g>
</g>
<g>
</g>
<g>
</g>
<g>
</g>
<g>
</g>
<g>
</g>
<g>
</g>
<g>
</g>
<g>
</g>
<g>
</g>
</svg>
