<?xml version="1.0" encoding="iso-8859-1"?>
<!-- Generator: Adobe Illustrator 16.0.0, SVG Export Plug-In . SVG Version: 6.00 Build 0)  -->
<!DOCTYPE svg PUBLIC "-//W3C//DTD SVG 1.1//EN" "http://www.w3.org/Graphics/SVG/1.1/DTD/svg11.dtd">
<svg version="1.1" id="Capa_1" xmlns="http://www.w3.org/2000/svg" xmlns:xlink="http://www.w3.org/1999/xlink" x="0px" y="0px"
	 width="612px" height="612px" viewBox="0 0 612 612" style="enable-background:new 0 0 612 612;" xml:space="preserve">
<g>
	<g>
		<path d="M544.126,233.143h-63.143V53.429C480.983,24.966,449.781,0,418.929,0H176.071c-4.507,0-7.732,2.089-10.491,5.654
			l-64.183,83.475L17.719,189.826c-2.934,3.527-3.886,8.16-2.895,12.532c-0.68,2.186-0.126,4.644-0.126,7.169v349.044
			C14.697,589.531,31.144,612,59.5,612h359.429c30.853,0,62.055-24.966,62.055-53.429V427.429h63.143
			c29.513,0,53.429-23.927,53.429-53.429v-87.429C597.555,257.069,573.639,233.143,544.126,233.143z M568.412,374
			c0,13.416-10.871,24.285-24.286,24.285H359.555c-13.406,0-24.286-10.869-24.286-24.285v-87.429
			c0-13.415,10.88-24.286,24.286-24.286h184.571c13.415,0,24.286,10.871,24.286,24.286V374z M170.126,56.994v98.619
			c0,12.454-22.605,28.958-36.516,28.958H66.348l42.966-57.149L170.126,56.994z M451.84,558.571
			c0,12.259-18.389,24.286-32.911,24.286H59.5c-14.61,0-15.66-13.086-15.66-24.286V214.511l0.603-0.796h89.167
			c30.464,0,65.659-29.328,65.659-58.102V29.143h219.66c14.522,0,32.911,12.026,32.911,24.286v179.714h-92.285
			c-29.502,0-53.429,23.927-53.429,53.429V374c0,29.502,23.927,53.429,53.429,53.429h92.285V558.571z"/>
		<path d="M381.499,307.098c-3.41-0.874-7.499-1.32-12.27-1.32H350.86c-3.041,0-5.227,0.68-6.587,2.039
			c-1.359,1.351-2.049,3.556-2.049,6.587v51c0,2.243,0.213,4.061,0.602,5.469c0.389,1.418,1.244,2.497,2.536,3.283
			c1.292,0.777,3.225,1.156,5.779,1.156h18.37c3.187,0,6.052-0.214,8.606-0.612c2.546-0.417,4.916-1.117,7.141-2.137
			c2.215-1.01,4.245-2.36,6.11-4.031c2.37-2.176,4.322-4.663,5.838-7.432c1.525-2.749,2.643-5.867,3.361-9.316
			c0.729-3.439,1.098-7.247,1.098-11.424c0-12.658-3.624-22.081-10.87-28.269C388.018,309.643,384.919,307.991,381.499,307.098z
			 M380.323,360.847c-1.039,0.913-2.272,1.632-3.7,2.128c-1.419,0.515-2.808,0.835-4.129,0.951
			c-1.331,0.137-3.167,0.186-5.508,0.186h-10.667v-47.183h9.297c4.304,0,7.976,0.456,11.006,1.39
			c3.041,0.941,5.576,3.108,7.655,6.518c2.079,3.42,3.108,8.559,3.108,15.427C387.386,349.996,385.035,356.864,380.323,360.847z"/>
		<path d="M463.206,308.982c-5.168-2.924-11.356-4.391-18.564-4.391c-5.313,0-10.054,0.816-14.231,2.486
			c-4.167,1.652-7.723,4.061-10.617,7.199c-2.914,3.127-5.148,6.916-6.674,11.375s-2.302,9.354-2.302,14.707
			c0,5.217,0.738,10.074,2.205,14.552c1.477,4.498,3.643,8.335,6.518,11.541c2.886,3.187,6.47,5.653,10.783,7.412
			c4.294,1.748,9.16,2.642,14.601,2.642c5.47,0,10.326-0.854,14.562-2.564c4.235-1.709,7.811-4.177,10.715-7.402
			c2.914-3.225,5.091-7.033,6.548-11.434c1.457-4.391,2.186-9.277,2.186-14.648c0-7.286-1.331-13.61-3.992-19.012
			C472.289,316.055,468.384,311.896,463.206,308.982z M461.973,354.251c-1.788,3.769-4.178,6.548-7.208,8.345
			c-3.021,1.807-6.324,2.71-9.929,2.71c-2.816,0-5.411-0.524-7.762-1.573c-2.351-1.039-4.439-2.613-6.266-4.721
			c-1.816-2.089-3.225-4.741-4.216-7.928c-1.001-3.205-1.496-6.78-1.496-10.725c0-3.924,0.495-7.461,1.496-10.607
			c0.991-3.148,2.36-5.732,4.08-7.762c1.71-2.012,3.778-3.565,6.168-4.625c2.38-1.049,4.983-1.573,7.801-1.573
			c3.944,0,7.461,0.942,10.501,2.866c3.051,1.913,5.401,4.74,7.053,8.461c1.642,3.74,2.468,8.141,2.468,13.24
			C464.663,345.857,463.77,350.491,461.973,354.251z"/>
		<path d="M544.097,347.228c-1.952,0-3.37,0.593-4.265,1.729c-0.884,1.155-1.622,2.651-2.215,4.497
			c-1.428,3.886-3.545,6.829-6.343,8.841c-2.798,2.01-6.218,3.011-10.259,3.011c-3.74,0-6.994-0.884-9.772-2.651
			c-2.788-1.788-4.935-4.459-6.45-8.044c-1.525-3.585-2.283-8.082-2.283-13.493c0-8.102,1.71-14.339,5.148-18.738
			c3.43-4.392,8.044-6.587,13.824-6.587c3.633,0,6.703,0.854,9.18,2.555c2.478,1.71,4.634,4.294,6.479,7.724
			c1.098,2.088,2.099,3.574,3.002,4.42c0.903,0.854,2.254,1.272,4.051,1.272c1.612,0,3.002-0.603,4.139-1.836
			c1.136-1.233,1.709-2.662,1.709-4.274c0-2.934-1.175-6.072-3.507-9.365c-2.351-3.303-5.712-6.07-10.112-8.334
			c-4.4-2.234-9.403-3.361-15.028-3.361c-4.623,0-8.976,0.816-13.056,2.467c-4.08,1.633-7.626,4.041-10.666,7.18
			c-3.031,3.147-5.372,6.936-6.994,11.365c-1.633,4.439-2.448,9.442-2.448,15.038c0,3.438,0.32,6.703,0.972,9.772
			c0.66,3.061,1.622,5.945,2.914,8.655c1.302,2.691,2.865,5.139,4.701,7.325c2.05,2.408,4.313,4.342,6.762,5.799
			c2.448,1.486,5.178,2.564,8.17,3.264c3.011,0.69,6.353,1.05,10.024,1.05c4.838,0,9.064-0.777,12.707-2.331
			c3.633-1.545,6.625-3.575,8.956-6.062c2.341-2.457,4.061-5.003,5.148-7.587c1.099-2.555,1.642-4.964,1.642-7.169
			c0-1.748-0.602-3.205-1.797-4.361C547.225,347.82,545.777,347.228,544.097,347.228z"/>
	</g>
</g>
<g>
</g>
<g>
</g>
<g>
</g>
<g>
</g>
<g>
</g>
<g>
</g>
<g>
</g>
<g>
</g>
<g>
</g>
<g>
</g>
<g>
</g>
<g>
</g>
<g>
</g>
<g>
</g>
<g>
</g>
</svg>
