<?xml version="1.0" encoding="iso-8859-1"?>
<!-- Generator: Adobe Illustrator 16.0.0, SVG Export Plug-In . SVG Version: 6.00 Build 0)  -->
<!DOCTYPE svg PUBLIC "-//W3C//DTD SVG 1.1//EN" "http://www.w3.org/Graphics/SVG/1.1/DTD/svg11.dtd">
<svg version="1.1" id="Capa_1" xmlns="http://www.w3.org/2000/svg" xmlns:xlink="http://www.w3.org/1999/xlink" x="0px" y="0px"
	 width="612px" height="612px" viewBox="0 0 612 612" style="enable-background:new 0 0 612 612;" xml:space="preserve">
<g>
	<g>
		<path d="M544.103,223.429H480.96v-170C480.96,23.47,454.042,0,424.977,0H182.12c-4.197,0-7.228,1.855-9.889,4.993
			c-1.137,0.729-2.244,1.516-3.05,2.517L22.038,190.002c-1.467,1.807-2.312,3.925-2.788,6.12l-3.419,4.274
			c-2.089,2.584-1.156,5.799-1.156,9.131v349.044c0,28.958,21.051,53.429,50.874,53.429h359.428
			c29.065,0,55.984-23.47,55.984-53.429V417.715h63.143c29.512,0,53.429-23.927,53.429-53.43v-87.428
			C597.532,247.355,573.616,223.429,544.103,223.429z M568.389,364.285c0,13.416-10.87,24.286-24.286,24.286H359.532
			c-13.415,0-24.285-10.87-24.285-24.286v-87.428c0-13.416,10.87-24.286,24.285-24.286h184.571c13.416,0,24.286,10.87,24.286,24.286
			V364.285z M170.103,57.945v97.668c0,13.531-19.011,28.958-32.047,28.958H67.394l49.436-63.134L170.103,57.945z M451.818,558.571
			c0,13.843-13.901,24.286-26.841,24.286H65.548c-13.784,0-21.73-11.347-21.73-24.286V214.676l0.758-0.961h93.48
			c29.327,0,61.19-28.23,61.19-58.102V29.143h225.731c12.939,0,26.84,10.443,26.84,24.286v170h-92.285
			c-29.512,0-53.429,23.927-53.429,53.429v87.428c0,29.503,23.917,53.43,53.429,53.43h92.285L451.818,558.571L451.818,558.571z"/>
		<path d="M413.796,310.954c-2.069-1.846-4.527-3.147-7.374-3.954c-2.885-0.815-6.994-1.224-12.327-1.224h-18.078
			c-3.099,0-5.362,0.661-6.78,1.991c-1.429,1.321-2.138,3.546-2.138,6.635v53.604c0,2.788,0.651,4.896,1.943,6.334
			c1.292,1.447,3.002,2.166,5.129,2.166c2.021,0,3.701-0.738,5.022-2.186c1.331-1.457,1.991-3.584,1.991-6.411v-19.672h12.91
			c8.626,0,15.125-1.846,19.487-5.488c4.371-3.662,6.547-9.015,6.547-16.106c0-3.322-0.534-6.295-1.612-8.956
			C417.439,315.034,415.875,312.771,413.796,310.954z M404.101,333.151c-1.176,1.573-2.876,2.71-5.109,3.41
			c-2.225,0.689-4.993,1.049-8.315,1.049h-9.491v-21.255h9.491c6.285,0,10.442,1.03,12.473,3.08c1.807,1.933,2.7,4.439,2.7,7.489
			C405.85,329.489,405.267,331.559,404.101,333.151z"/>
		<path d="M480.562,312.091c-2.788-2.448-5.887-4.099-9.296-4.993c-3.42-0.874-7.52-1.32-12.289-1.32h-18.351
			c-3.04,0-5.245,0.68-6.596,2.039c-1.37,1.351-2.04,3.556-2.04,6.587v51c0,2.243,0.194,4.061,0.583,5.469
			c0.398,1.418,1.243,2.497,2.545,3.283c1.292,0.777,3.225,1.156,5.79,1.156h18.35c3.196,0,6.071-0.214,8.607-0.612
			c2.555-0.417,4.925-1.117,7.149-2.137c2.205-1.01,4.245-2.36,6.11-4.031c2.38-2.176,4.323-4.663,5.838-7.432
			c1.516-2.749,2.643-5.867,3.371-9.316c0.719-3.439,1.088-7.247,1.088-11.424C491.422,327.702,487.799,318.279,480.562,312.091z
			 M470.081,360.847c-1.049,0.913-2.283,1.632-3.701,2.128c-1.428,0.515-2.798,0.835-4.129,0.951
			c-1.33,0.137-3.167,0.186-5.498,0.186h-10.676v-47.183h9.297c4.293,0,7.966,0.456,11.006,1.39
			c3.031,0.941,5.586,3.108,7.655,6.518c2.078,3.42,3.108,8.559,3.108,15.427C477.143,349.996,474.782,356.864,470.081,360.847z"/>
		<path d="M545.357,305.776h-33.204c-1.991,0-3.633,0.302-4.915,0.864c-1.282,0.593-2.215,1.525-2.817,2.808
			c-0.612,1.272-0.903,2.943-0.903,4.954v53.507c0,2.885,0.66,5.032,1.962,6.45c1.321,1.428,3.021,2.146,5.11,2.146
			c2.05,0,3.73-0.709,5.041-2.127c1.321-1.408,1.973-3.546,1.973-6.47v-22.896H540.8c2.118,0,3.711-0.476,4.789-1.428
			s1.613-2.234,1.613-3.847c0-1.613-0.525-2.905-1.594-3.876c-1.049-0.942-2.661-1.438-4.809-1.438h-23.197v-17.776h27.754
			c2.233,0,3.904-0.515,4.993-1.506c1.098-1.001,1.642-2.312,1.642-3.964c0-1.612-0.544-2.924-1.642-3.904
			C549.261,306.263,547.59,305.776,545.357,305.776z"/>
	</g>
</g>
<g>
</g>
<g>
</g>
<g>
</g>
<g>
</g>
<g>
</g>
<g>
</g>
<g>
</g>
<g>
</g>
<g>
</g>
<g>
</g>
<g>
</g>
<g>
</g>
<g>
</g>
<g>
</g>
<g>
</g>
</svg>
