<?xml version="1.0" encoding="iso-8859-1"?>
<!-- Generator: Adobe Illustrator 16.0.0, SVG Export Plug-In . SVG Version: 6.00 Build 0)  -->
<!DOCTYPE svg PUBLIC "-//W3C//DTD SVG 1.1//EN" "http://www.w3.org/Graphics/SVG/1.1/DTD/svg11.dtd">
<svg version="1.1" id="Capa_1" xmlns="http://www.w3.org/2000/svg" xmlns:xlink="http://www.w3.org/1999/xlink" x="0px" y="0px"
	 width="612px" height="612px" viewBox="0 0 612 612" style="enable-background:new 0 0 612 612;" xml:space="preserve">
<g>
	<g>
		<path d="M534.39,213.715h-43.715V53.429C490.675,23.47,463.757,0,434.691,0H191.834c-4.177,0-7.208,1.846-9.86,4.964
			c-1.185,0.748-2.302,1.573-3.128,2.604L33.297,190.051c-0.612,0.768-1.021,1.621-1.457,2.477l-6.295,7.869
			c-2.089,2.584-1.156,5.809-1.156,9.131v349.044C24.389,587.529,45.44,612,75.263,612h359.429c29.064,0,55.983-23.47,55.983-53.429
			V408h43.714c29.512,0,53.429-23.927,53.429-53.429v-87.429C587.818,237.641,563.901,213.715,534.39,213.715z M558.675,354.571
			c0,13.416-10.87,24.286-24.285,24.286H349.818c-13.416,0-24.286-10.87-24.286-24.286v-87.429c0-13.415,10.87-24.285,24.286-24.285
			H534.39c13.415,0,24.285,10.87,24.285,24.285V354.571z M179.818,58.295v97.318c0,14.076-17.661,28.958-30.444,28.958H77.109
			l35.544-45.395L179.818,58.295z M461.532,558.571c0,13.843-13.901,24.286-26.841,24.286H75.263
			c-13.785,0-21.731-11.347-21.731-24.286V214.676l0.758-0.961h95.093c29.017,0,59.587-27.696,59.587-58.102V29.143h225.731
			c12.939,0,26.841,10.443,26.841,24.286v160.286H349.828c-29.513,0-53.429,23.926-53.429,53.428v87.429
			c0,29.502,23.917,53.429,53.429,53.429h111.714v150.571H461.532z"/>
		<path d="M416.556,313.577c-1.37-0.35-3.021-0.524-4.983-0.524h-15.98c-1.934,0-3.458,0.505-4.575,1.525
			c-1.127,1.01-1.69,2.292-1.69,3.837c0,1.904,0.68,3.245,2.011,4.031c1.351,0.787,3.342,1.186,5.965,1.186h10.909v11.288
			c-2.943,1.593-5.849,2.807-8.714,3.652c-2.856,0.855-5.916,1.282-9.17,1.282c-6.713,0-11.93-2.195-15.68-6.587
			c-3.739-4.4-5.624-10.676-5.624-18.836c0-3.769,0.485-7.188,1.447-10.287c0.972-3.108,2.36-5.712,4.177-7.858
			c1.817-2.128,4.013-3.76,6.567-4.877c2.564-1.127,5.479-1.69,8.733-1.69c3.156,0,5.76,0.477,7.81,1.428
			c2.021,0.942,3.662,2.108,4.857,3.508c1.195,1.398,2.672,3.438,4.41,6.168c0.632,0.855,1.409,1.516,2.341,1.991
			c0.933,0.476,1.914,0.709,2.925,0.709c1.836,0,3.399-0.621,4.721-1.864c1.312-1.254,1.962-2.76,1.962-4.537
			c0-1.642-0.563-3.526-1.709-5.644c-1.137-2.118-2.837-4.129-5.071-6.023c-2.244-1.903-5.168-3.478-8.782-4.73
			c-3.604-1.243-7.742-1.865-12.424-1.865c-5.693,0-10.783,0.825-15.271,2.497c-4.488,1.651-8.306,4.051-11.434,7.179
			s-5.498,6.945-7.11,11.434c-1.613,4.488-2.419,9.442-2.419,14.844c0,5.508,0.825,10.481,2.496,14.94
			c1.651,4.459,4.041,8.257,7.131,11.385c3.089,3.128,6.849,5.527,11.239,7.16c4.391,1.641,9.268,2.467,14.61,2.467
			c4.585,0,8.82-0.515,12.716-1.564c3.886-1.039,7.937-2.7,12.143-4.973c1.447-0.797,2.643-1.623,3.575-2.468
			c0.942-0.855,1.573-1.817,1.923-2.876s0.525-2.467,0.525-4.245V321.31c0-2.399-0.418-4.196-1.254-5.401
			C419.013,314.694,417.925,313.927,416.556,313.577z"/>
		<path d="M442.074,278.858c-2.049,0-3.739,0.709-5.031,2.137c-1.282,1.419-1.943,3.556-1.943,6.401v54.789
			c0,2.837,0.661,4.983,1.963,6.431c1.32,1.429,2.981,2.147,5.012,2.147c2.128,0,3.828-0.709,5.14-2.128
			c1.321-1.428,1.972-3.575,1.972-6.45v-54.789c0-2.875-0.65-5.021-1.972-6.421C445.902,279.558,444.202,278.858,442.074,278.858z"
			/>
		<path d="M506.49,280.043h-33.203c-1.992,0-3.624,0.292-4.916,0.875c-1.272,0.582-2.225,1.516-2.816,2.807
			c-0.603,1.273-0.904,2.935-0.904,4.955v53.506c0,2.875,0.661,5.022,1.973,6.45c1.312,1.419,3.012,2.128,5.1,2.128
			c2.06,0,3.74-0.699,5.052-2.108s1.962-3.565,1.962-6.47V319.27h23.198c2.127,0,3.721-0.477,4.789-1.418
			c1.078-0.952,1.612-2.234,1.612-3.847s-0.524-2.905-1.583-3.866c-1.06-0.962-2.672-1.447-4.818-1.447h-23.198v-17.787h27.754
			c2.234,0,3.905-0.496,5.003-1.486c1.088-1.011,1.632-2.322,1.632-3.964c0-1.612-0.544-2.924-1.632-3.915
			C510.396,280.539,508.725,280.043,506.49,280.043z"/>
	</g>
</g>
<g>
</g>
<g>
</g>
<g>
</g>
<g>
</g>
<g>
</g>
<g>
</g>
<g>
</g>
<g>
</g>
<g>
</g>
<g>
</g>
<g>
</g>
<g>
</g>
<g>
</g>
<g>
</g>
<g>
</g>
</svg>
