<?xml version="1.0" ?><svg data-name="Layer 1" id="Layer_1" viewBox="0 0 512 512" xmlns="http://www.w3.org/2000/svg"><path d="M321,200.94A143,143,0,0,0,320,184.3c-.06-.51-.16-1-.23-1.51-.64.06-1.3.07-2,.14-2.12.22-4.2.56-6.29.88-2.43.38-4.86.76-7.26,1.26-2.07.43-4.11,1-6.15,1.48-2.33.59-4.65,1.21-6.94,1.92-2,.63-4,1.33-6,2.05-2.22.81-4.43,1.64-6.6,2.55-1.94.82-3.85,1.69-5.74,2.59-2.13,1-4.22,2.05-6.29,3.15q-2.76,1.49-5.44,3.08c-1.49.88-2.95,1.82-4.4,2.76h64.17C320.88,203.41,321,202.19,321,200.94Z"/><path d="M301.87,271.38c1-1.74,2.05-3.46,3-5.24C306,264,307,261.72,308,259.48c.81-1.76,1.67-3.5,2.41-5.3H209.67c-.85,1.48-1.74,2.92-2.53,4.43C206,260.78,205,263,204,265.25c-.83,1.8-1.71,3.57-2.46,5.41-.2.48-.34,1-.53,1.45H301.43Z"/><path d="M168.26,341.48a168.92,168.92,0,0,1-1-17.67c0-5.44.29-10.82.82-16.13.17-1.8.53-3.53.76-5.31.46-3.49.91-7,1.59-10.41.41-2.08,1-4.09,1.48-6.14.73-3.05,1.44-6.11,2.34-9.09.64-2.14,1.43-4.22,2.16-6.32,1-2.8,1.92-5.6,3-8.33.87-2.13,1.86-4.19,2.81-6.27,1.19-2.6,2.38-5.2,3.7-7.74,1.08-2.06,2.25-4.06,3.41-6.07,1.41-2.43,2.82-4.85,4.34-7.21,1.27-2,2.62-3.87,4-5.78,1.6-2.27,3.23-4.52,4.95-6.71,1.44-1.84,3-3.63,4.47-5.41,1.8-2.11,3.63-4.18,5.53-6.2,1.61-1.71,3.26-3.37,4.94-5,2-1.93,4-3.82,6.09-5.65,1.75-1.55,3.52-3.06,5.34-4.54,2.16-1.76,4.38-3.44,6.64-5.1,1.88-1.37,3.76-2.73,5.69-4,2.34-1.57,4.74-3.05,7.17-4.5,2-1.19,4-2.37,6-3.48,2.52-1.37,5.1-2.62,7.69-3.86,2.07-1,4.11-2,6.22-2.9,2.68-1.15,5.43-2.15,8.18-3.16,2.13-.78,4.24-1.6,6.41-2.3,2.88-.92,5.82-1.67,8.77-2.43,2.13-.55,4.23-1.17,6.39-1.64,3.13-.68,6.33-1.15,9.53-1.65,2.06-.32,4.09-.74,6.18-1,.32,0,.63-.12.95-.15a140.62,140.62,0,0,0-20-40.43l59.77-59.77h60.06a11.85,11.85,0,0,0,0-23.7h-65a11.84,11.84,0,0,0-8.38,3.47l-61.89,61.88A142,142,0,0,0,179.12,59c-78.25,0-141.9,63.65-141.9,141.9,0,74.61,57.88,136,131.1,141.5C168.28,342.12,168.3,341.8,168.26,341.48Z"/><path d="M191,323.81a143,143,0,0,0,1.08,16.63c.06.51.16,1,.23,1.52.65-.06,1.32-.07,2-.14,2.09-.22,4.16-.56,6.23-.88,2.45-.37,4.9-.76,7.31-1.26,2.06-.43,4.09-.95,6.12-1.47,2.34-.6,4.68-1.22,7-1.94,2-.62,4-1.32,5.93-2,2.24-.81,4.47-1.65,6.66-2.57,1.93-.81,3.82-1.68,5.71-2.57,2.13-1,4.23-2.06,6.3-3.17,1.84-1,3.65-2,5.44-3.07.65-.39,1.29-.82,1.94-1.22H191.08C191.07,322.37,191,323.08,191,323.81Z"/><path d="M343.68,182.32c0,.31,0,.63.06.94a169.11,169.11,0,0,1,1,17.68c0,5.44-.29,10.82-.82,16.13-.17,1.8-.53,3.54-.76,5.32-.46,3.49-.91,7-1.59,10.4-.41,2.08-1,4.09-1.49,6.14-.73,3-1.43,6.1-2.33,9.09-.64,2.15-1.44,4.23-2.17,6.35-1,2.78-1.91,5.57-3,8.29-.88,2.14-1.87,4.21-2.83,6.3-1.19,2.59-2.37,5.18-3.69,7.71-1.08,2.07-2.26,4.08-3.43,6.1-1.4,2.42-2.8,4.83-4.31,7.17-1.28,2-2.64,3.91-4,5.83-1.59,2.25-3.2,4.48-4.89,6.65-1.47,1.87-3,3.68-4.54,5.49q-2.66,3.12-5.46,6.12c-1.59,1.68-3.22,3.33-4.87,5-.2.21-.39.4-.61.6-1.8,1.74-3.66,3.44-5.54,5.11s-3.57,3.1-5.41,4.59c-2.14,1.74-4.33,3.4-6.55,5-1.91,1.4-3.83,2.78-5.8,4.1-2.3,1.54-4.66,3-7,4.42-2,1.21-4,2.42-6.1,3.55-2.48,1.35-5,2.58-7.58,3.8-2.09,1-4.17,2-6.32,2.95-2.65,1.14-5.37,2.13-8.1,3.13-2.15.79-4.28,1.62-6.47,2.32-2.86.92-5.79,1.66-8.72,2.42-2.15.56-4.26,1.18-6.44,1.65-3.15.69-6.37,1.16-9.58,1.66-2,.32-4,.73-6.1,1-.33,0-.64.12-1,.15a140,140,0,0,0,12.17,28L150,452.88H89.9a11.85,11.85,0,0,0,0,23.7h65a11.84,11.84,0,0,0,8.38-3.47L223,413.39a142.25,142.25,0,0,0,109.92,52.32c78.25,0,141.9-63.66,141.9-141.9C474.78,249.2,416.9,187.86,343.68,182.32Z"/><path d="M277.44,302.59c1.48-1.43,3-2.87,4.38-4.36,1.62-1.7,3.16-3.48,4.69-5.25,1.34-1.55,2.68-3.1,3.94-4.7.1-.12.18-.25.27-.37h-94.9c-.28,1.06-.56,2.11-.81,3.17-.43,1.77-.94,3.51-1.3,5.3-.59,2.95-1,6-1.37,9,0,.16-.05.32-.07.48h81.67C275.12,304.77,276.29,303.7,277.44,302.59Z"/><path d="M317,233.68c.43-1.77.94-3.51,1.3-5.31.52-2.6.84-5.27,1.21-7.92H236.39c-.61.57-1.23,1.12-1.83,1.7-1.48,1.44-3,2.87-4.38,4.37-1.62,1.7-3.16,3.47-4.69,5.25-1.34,1.55-2.68,3.1-3.94,4.7-.49.62-.93,1.28-1.41,1.91h95.65C316.22,236.83,316.61,235.26,317,233.68Z"/><path d="M89.9,410.48a11.85,11.85,0,0,0,0,23.7h57.74a11.85,11.85,0,1,0,0-23.7Z"/><path d="M414.68,76H356.94a11.85,11.85,0,0,0,0,23.7h57.74a11.85,11.85,0,0,0,0-23.7Z"/></svg>