<svg xmlns="http://www.w3.org/2000/svg" viewBox="0 0 32 32">
  <path fill="currentColor" d="M11.741 16.001a3.197 3.197 0 106.395 0 3.197 3.197 0 00-6.395 0z"/>
  <path fill="currentColor" d="M21.554 9.73a1.882 1.882 0 100-3.764 1.882 1.882 0 000 3.764z"/>
  <path fill="currentColor" d="M21.213 1.931v2.87a3.066 3.066 0 11-1.235 5.675l-2.042 2.525A4.226 4.226 0 0119.179 16a4.22 4.22 0 01-.66 2.27l2.389 1.964a3.05 3.05 0 012.935-.707l3.876-3.876a.614.614 0 01.868 0l2.288 2.288c.082-.635.125-1.282.125-1.939 0-6.451-4.072-11.95-9.787-14.069z"/>
  <path fill="currentColor" d="M19.933 22.472c0-.43.089-.839.249-1.21l-2.485-2.043a4.215 4.215 0 01-2.543 1.015v5.303a.614.614 0 01-.614.614H8.75v2.979A14.91 14.91 0 0016 31c2.23 0 4.346-.487 6.248-1.36v-4.199a3.063 3.063 0 01-2.315-2.969z"/>
  <path fill="currentColor" d="M7.533 17.693H1.096c.062.555.157 1.1.278 1.635H6.1v1.228H1.707a14.98 14.98 0 003.243 5.587V22.79a.614.614 0 01.614-.614h1.969v-4.483z"/>
  <path fill="currentColor" d="M19.985 5.217V1.536a15.12 15.12 0 00-5.899-.415V7.1h4.497a3.068 3.068 0 011.402-1.883z"/>
  <path fill="currentColor" d="M24.976 20.131a3.064 3.064 0 01-1.5 5.366v3.507a15.024 15.024 0 007.134-9.593l-2.457-2.457-3.177 3.177z"/>
  <path fill="currentColor" d="M11.588 13.403a4.232 4.232 0 015.339-1.149l2.131-2.635a3.054 3.054 0 01-.528-1.291h-5.057a.614.614 0 01-.614-.614V1.331A14.9 14.9 0 008.936 2.77v10.634h2.652z"/>
  <path fill="currentColor" d="M13.925 20.118a4.241 4.241 0 01-3-5.485H8.32a.614.614 0 01-.614-.614V3.505c-.604.399-1.176.844-1.715 1.327v6.679H4.763V6.069a14.95 14.95 0 00-3.538 7.335h4.874v1.228H1.062a15.086 15.086 0 00-.054 1.832h7.14c.339 0 .614.275.614.614v5.098h3.589v1.228H6.179v3.933c.427.37.876.713 1.343 1.034v-2.833c0-.339.275-.614.614-.614h5.79v-4.806z"/>
</svg>
