<svg version="1.1" id="Layer_1" xmlns="http://www.w3.org/2000/svg" x="0" y="0" viewBox="0 0 32 32" xml:space="preserve"><style>.st1{fill:#fff}</style><g id="XMLID_9_"><g id="XMLID_10_"><g id="XMLID_11_"><path id="XMLID_7_" d="M17.9 31.5c-1.1.6-2.9.6-4 0l-10.4-6c-1.1-.6-2-2.2-2-3.4v-12c0-1.3.9-2.8 2-3.4l10.4-6c1.1-.6 2.9-.6 4 0l10.4 6c1.1.6 2 2.2 2 3.4v12c0 1.3-.9 2.8-2 3.4l-10.4 6z" fill="#1085c7"/><g id="XMLID_12_"><g id="XMLID_13_"><g id="XMLID_20_"><path id="XMLID_6_" class="st1" d="M10.9 15.4s0-.1 0 0c-.1-.3-.2-.6-.4-.9-.1-.3-.1-.6 0-.8.1-.2.3-.4.6-.6.4-.2.7-.3.8-.4h.1c.4-.2.8-.5 1-1 .4-.9-.1-1.9-1-2.3-.9-.4-1.9.1-2.3 1-.2.5-.2.9 0 1.4v.1c.1.2.2.5.3.9.1.3.1.6 0 .8 0 .1-.2.3-.5.4-.4.2-.7.3-.8.4h-.1c-.4.2-.8.5-1 1-.4.9.1 2 1 2.3.9.4 1.9-.1 2.3-1 .2-.4.2-.9 0-1.3z"/><path id="XMLID_5_" class="st1" d="M12 19.5c-.3-.1-.6-.2-.9-.4-.3-.2-.5-.3-.6-.6-.1-.2-.1-.5 0-.8.1-.4.2-.7.3-.9v-.1c.2-.4.2-.9 0-1.4-.4-.9-1.4-1.3-2.3-1-.9.4-1.3 1.4-1 2.3.2.5.5.8 1 1h.1c.2.1.5.2.8.4.3.2.5.3.6.6.1.2.1.5 0 .8-.1.4-.2.7-.3.9v.1c-.2.4-.2.9 0 1.4.4.9 1.4 1.3 2.3 1 .9-.4 1.3-1.4 1-2.3-.2-.5-.5-.8-1-1z"/></g><g id="XMLID_17_"><path id="XMLID_4_" class="st1" d="M14.8 8.2s0 .1 0 0c-.1.3-.2.6-.4.9-.2.3-.3.5-.6.6-.2.1-.5.1-.8 0-.4-.1-.7-.2-.9-.3H12c-.4-.2-.9-.2-1.4 0-.9.4-1.3 1.4-1 2.3.4.9 1.4 1.3 2.3 1 .5-.2.8-.5 1-1v-.1c.1-.2.2-.5.4-.8.2-.3.3-.5.6-.6.2-.1.5-.1.8 0 .4.1.7.2.9.3h.1c.4.2.9.2 1.4 0 .9-.4 1.3-1.4 1-2.3-.4-.9-1.4-1.3-2.3-1-.5.2-.8.6-1 1z"/><path id="XMLID_3_" class="st1" d="M20.9 9.4c-.1 0-.1 0 0 0-.3.1-.6.2-.9.4-.3.1-.6.1-.8 0-.2-.1-.4-.3-.6-.6-.2-.4-.3-.7-.4-.8v-.1c-.2-.4-.5-.8-1-1-.9-.4-2 .1-2.3 1-.4.9.1 2 1 2.3.5.2.9.2 1.4 0h.1c.2-.1.5-.2.9-.3.3-.1.6-.1.8 0 .2.1.4.3.6.6.2.4.3.7.4.8v.1c.2.4.5.8 1 1 .9.4 1.9-.1 2.3-1 .4-.9-.1-1.9-1-2.3-.6-.3-1.1-.3-1.5-.1z"/></g><g id="XMLID_14_"><path id="XMLID_2_" class="st1" d="M18.1 24c0-.1 0-.1 0 0 .1-.3.2-.6.4-.9.2-.3.3-.5.6-.6.2-.1.5-.1.8 0 .4.1.7.2.9.3h.1c.4.2.9.2 1.4 0 .9-.4 1.3-1.4 1-2.3-.4-.9-1.4-1.3-2.3-1-.5.2-.8.5-1 1v.1c-.1.2-.2.5-.4.8-.2.3-.3.5-.6.6-.2.1-.5.1-.8 0-.4-.1-.7-.2-.9-.3h-.1c-.4-.2-.9-.2-1.4 0-.9.4-1.3 1.4-1 2.3.4.9 1.4 1.3 2.3 1 .5-.2.8-.6 1-1z"/><path id="XMLID_1_" class="st1" d="M12 22.8c.1 0 .1 0 0 0 .3-.1.6-.2.9-.4.3-.1.6-.1.8 0 .2.1.4.3.6.6.2.4.3.7.4.8v.1c.2.4.5.8 1 1 .9.4 1.9-.1 2.3-1 .4-.9-.1-1.9-1-2.3-.5-.2-.9-.2-1.4 0h-.1c-.2.1-.5.2-.9.3-.3.1-.6.1-.8 0-.2-.1-.4-.3-.6-.6-.2-.4-.3-.7-.4-.8v-.1c-.2-.4-.5-.8-1-1-.9-.4-2 .1-2.3 1-.4.9.1 1.9 1 2.3.6.3 1.1.3 1.5.1z"/></g></g></g></g></g></g></svg>