<?xml version="1.0" encoding="utf-8"?>
<!-- Generator: Adobe Illustrator 17.0.0, SVG Export Plug-In . SVG Version: 6.00 Build 0)  -->
<!DOCTYPE svg PUBLIC "-//W3C//DTD SVG 1.1//EN" "http://www.w3.org/Graphics/SVG/1.1/DTD/svg11.dtd">
<svg version="1.1" id="Layer_1" xmlns="http://www.w3.org/2000/svg" xmlns:xlink="http://www.w3.org/1999/xlink" x="0px" y="0px"
	 width="134px" height="34.212px" viewBox="0 0 134 34.212" enable-background="new 0 0 134 34.212" xml:space="preserve">
<g>
	<g>
		<path fill="#48525A" d="M128.669,9.613v-0.47h2.085v0.47h-0.763v2.074h-0.56V9.613H128.669z"/>
		<path fill="#48525A" d="M132.047,9.143l0.595,1.75h0.007l0.563-1.75H134v2.544h-0.524V9.884h-0.007l-0.624,1.803h-0.431
			l-0.624-1.785h-0.007v1.785h-0.524V9.143H132.047z"/>
	</g>
	<path fill="#48525A" d="M81.698,18.926l-6.416-9.919H72.46v16.199h3.163v-9.942l6.415,9.942h2.821V9.006h-3.162V18.926z
		 M61.539,8.87c-1.843,0-3.254,0.637-4.391,1.775c-1.638,1.637-1.593,3.662-1.593,6.461c0,2.798-0.045,4.823,1.593,6.462
		c1.137,1.137,2.548,1.774,4.391,1.774c1.843,0,3.23-0.637,4.368-1.774c1.638-1.639,1.615-3.663,1.615-6.462
		c0-2.799,0.023-4.824-1.615-6.461C64.77,9.507,63.382,8.87,61.539,8.87z M63.564,21.656c-0.455,0.524-1.16,0.865-2.025,0.865
		c-0.864,0-1.593-0.342-2.048-0.865c-0.614-0.682-0.774-1.433-0.774-4.55c0-3.117,0.159-3.868,0.774-4.55
		c0.455-0.524,1.183-0.865,2.048-0.865c0.865,0,1.57,0.34,2.025,0.865c0.614,0.683,0.796,1.433,0.796,4.55
		C64.36,20.223,64.178,20.974,63.564,21.656z M45.726,11.691c1.592,0,2.411,1.001,2.73,2.298h3.208
		c-0.569-3.39-2.935-5.119-5.961-5.119c-1.775,0-3.23,0.637-4.368,1.775c-1.638,1.637-1.592,3.662-1.592,6.461
		c0,2.798-0.046,4.823,1.592,6.462c1.138,1.137,2.594,1.774,4.368,1.774c3.003,0,5.392-1.729,5.961-5.119h-3.208
		c-0.319,1.297-1.138,2.298-2.73,2.298c-0.865,0-1.57-0.318-2.025-0.842c-0.614-0.682-0.796-1.456-0.796-4.573
		c0-3.117,0.182-3.891,0.796-4.573C44.156,12.01,44.861,11.691,45.726,11.691z M99.581,18.926l-6.416-9.919h-2.821v16.199h3.162
		v-9.942l6.416,9.942h2.821V9.006h-3.162V18.926z M126.679,10.645c-1.138-1.137-2.526-1.775-4.369-1.775
		c-1.842,0-3.253,0.637-4.391,1.775c-1.638,1.637-1.592,3.662-1.592,6.461c0,2.798-0.046,4.823,1.592,6.462
		c1.138,1.137,2.548,1.774,4.391,1.774c1.843,0,3.231-0.637,4.369-1.774c1.638-1.639,1.615-3.663,1.615-6.462
		C128.294,14.307,128.317,12.282,126.679,10.645z M124.336,21.656c-0.455,0.524-1.16,0.865-2.025,0.865
		c-0.864,0-1.592-0.342-2.047-0.865c-0.614-0.682-0.773-1.433-0.773-4.55c0-3.117,0.159-3.868,0.773-4.55
		c0.455-0.524,1.183-0.865,2.047-0.865c0.865,0,1.57,0.34,2.025,0.865c0.614,0.683,0.796,1.433,0.796,4.55
		C125.132,20.223,124.95,20.974,124.336,21.656z M111.39,9.006h-3.163v16.199h3.163V11.243l2.235-2.236L111.39,9.006L111.39,9.006z"
		/>
	<g>
		<path fill="#1085C7" d="M17.583,33.703c-1.177,0.679-3.103,0.679-4.279,0L2.14,27.257C0.963,26.578,0,24.91,0,23.551v-12.89
			c0-1.359,0.963-3.027,2.14-3.706L13.304,0.51c1.176-0.68,3.102-0.68,4.279,0l11.162,6.445c1.178,0.679,2.14,2.347,2.14,3.706
			v12.89c0,1.359-0.962,3.026-2.14,3.706L17.583,33.703z"/>
		<path fill="#FFFFFF" d="M20.74,20.827c-0.492,0.203-0.853,0.588-1.039,1.044c-0.015,0.029-0.03,0.057-0.046,0.09
			c-0.084,0.201-0.218,0.503-0.402,0.9c-0.163,0.35-0.364,0.575-0.598,0.675c-0.238,0.094-0.539,0.078-0.901-0.054
			c-0.411-0.151-0.719-0.268-0.922-0.352c-0.03-0.012-0.06-0.02-0.091-0.03c-0.003-0.002-0.007-0.002-0.011-0.003
			c-0.004-0.002-0.008-0.005-0.012-0.007c-0.075-0.031-0.151-0.047-0.227-0.068c-0.037-0.01-0.073-0.025-0.111-0.033
			c-0.39-0.083-0.785-0.043-1.137,0.105c-0.031,0.01-0.061,0.02-0.094,0.031c-0.203,0.084-0.509,0.201-0.922,0.352
			c-0.364,0.133-0.664,0.15-0.901,0.054c-0.235-0.1-0.436-0.325-0.598-0.674c-0.185-0.399-0.32-0.699-0.404-0.902
			c-0.007-0.015-0.015-0.03-0.022-0.044c-0.007-0.019-0.009-0.038-0.017-0.056c-0.203-0.492-0.587-0.852-1.044-1.039
			c-0.029-0.014-0.057-0.03-0.09-0.044c-0.201-0.084-0.503-0.218-0.9-0.404c-0.35-0.161-0.575-0.363-0.675-0.597
			C9.483,19.532,9.5,19.23,9.631,18.869c0.152-0.412,0.268-0.721,0.353-0.922c0.01-0.03,0.021-0.06,0.029-0.09
			c0-0.001,0-0.002,0.001-0.002c0.001-0.003,0.003-0.005,0.004-0.007c0.016-0.039,0.022-0.079,0.036-0.119
			c0.027-0.079,0.056-0.159,0.072-0.241c0.009-0.047,0.01-0.093,0.015-0.14c0.01-0.08,0.021-0.159,0.021-0.24
			c0-0.036-0.007-0.071-0.009-0.107c-0.005-0.091-0.011-0.181-0.03-0.272c-0.002-0.008-0.005-0.015-0.007-0.023
			c-0.024-0.109-0.053-0.218-0.097-0.325c-0.003-0.007-0.008-0.013-0.01-0.02c-0.008-0.026-0.017-0.052-0.026-0.081
			c-0.084-0.201-0.201-0.509-0.352-0.921c-0.133-0.363-0.15-0.664-0.054-0.9c0.101-0.237,0.326-0.438,0.674-0.599
			c0.399-0.184,0.7-0.319,0.902-0.403c0.028-0.013,0.057-0.029,0.085-0.044c0.242-0.098,0.461-0.248,0.647-0.438
			c0.014-0.014,0.024-0.03,0.037-0.044c0.069-0.075,0.136-0.153,0.193-0.24c0.046-0.069,0.081-0.144,0.117-0.218
			c0.016-0.034,0.039-0.064,0.053-0.1c0.001-0.002,0.001-0.004,0.002-0.005c0.002-0.005,0.005-0.009,0.007-0.013
			c0.015-0.028,0.03-0.057,0.046-0.089c0.084-0.201,0.218-0.502,0.402-0.9c0.163-0.35,0.364-0.576,0.6-0.675
			c0.236-0.096,0.538-0.079,0.899,0.053c0.412,0.151,0.721,0.269,0.923,0.353c0.029,0.012,0.06,0.02,0.09,0.03
			c0.004,0.002,0.009,0.002,0.013,0.004c0.004,0.002,0.008,0.005,0.012,0.006c0.07,0.029,0.142,0.044,0.213,0.064
			c0.041,0.011,0.081,0.028,0.123,0.037c0.389,0.083,0.785,0.043,1.136-0.105c0.03-0.01,0.061-0.02,0.096-0.031
			c0.201-0.084,0.509-0.201,0.922-0.352c0.362-0.132,0.664-0.15,0.899-0.054c0.236,0.101,0.437,0.325,0.599,0.674
			c0.185,0.398,0.319,0.7,0.404,0.903c0.014,0.028,0.029,0.056,0.043,0.084c0.186,0.458,0.548,0.843,1.04,1.049
			c0.978,0.404,2.096-0.06,2.502-1.037c0.404-0.976-0.058-2.095-1.035-2.5c-0.493-0.203-1.021-0.187-1.475,0.004
			c-0.03,0.009-0.06,0.019-0.094,0.03c-0.203,0.084-0.51,0.202-0.922,0.352c-0.362,0.133-0.665,0.149-0.901,0.054
			c-0.235-0.1-0.436-0.325-0.599-0.673c-0.184-0.399-0.319-0.701-0.403-0.902c-0.012-0.028-0.029-0.056-0.044-0.085
			c-0.142-0.352-0.391-0.66-0.723-0.877c-0.051-0.034-0.108-0.058-0.162-0.087c-0.052-0.027-0.099-0.06-0.154-0.083
			c-0.002-0.001-0.003-0.001-0.005-0.001c-0.454-0.19-0.981-0.207-1.473-0.003c-0.493,0.203-0.853,0.588-1.039,1.044
			c-0.014,0.028-0.03,0.057-0.045,0.089c-0.083,0.202-0.217,0.503-0.403,0.901c-0.162,0.349-0.363,0.575-0.598,0.674
			c-0.237,0.096-0.539,0.079-0.899-0.053c-0.412-0.151-0.721-0.268-0.923-0.352c-0.03-0.01-0.06-0.02-0.091-0.029
			C10.81,9.675,10.282,9.657,9.79,9.861c-0.49,0.203-0.851,0.587-1.038,1.041c0,0.001-0.002,0.002-0.002,0.004
			c-0.023,0.055-0.033,0.112-0.051,0.168c-0.018,0.059-0.041,0.117-0.054,0.178c-0.08,0.387-0.039,0.779,0.108,1.128
			c0.01,0.03,0.02,0.061,0.032,0.094c0.082,0.202,0.201,0.51,0.351,0.922c0.133,0.362,0.15,0.664,0.053,0.9
			c-0.099,0.236-0.324,0.437-0.673,0.598c-0.398,0.185-0.699,0.32-0.902,0.404c-0.026,0.013-0.052,0.027-0.078,0.041
			c-0.005,0.002-0.01,0.003-0.016,0.005c-0.092,0.038-0.176,0.088-0.259,0.139c-0.02,0.012-0.043,0.021-0.063,0.034
			c-0.079,0.052-0.149,0.113-0.219,0.176c-0.024,0.021-0.051,0.039-0.074,0.062c-0.069,0.068-0.127,0.143-0.184,0.22
			c-0.018,0.024-0.04,0.045-0.057,0.07c-0.071,0.106-0.133,0.218-0.181,0.335c0,0.001-0.001,0.002-0.002,0.003
			c-0.015,0.036-0.02,0.073-0.033,0.109c-0.028,0.081-0.057,0.162-0.074,0.246c-0.017,0.086-0.022,0.171-0.027,0.257
			c-0.002,0.037-0.01,0.073-0.01,0.111c-0.001,0.118,0.011,0.235,0.032,0.35c0.001,0.006,0.001,0.012,0.002,0.018
			c0.118,0.611,0.528,1.153,1.147,1.409c0.007,0.003,0.015,0.004,0.023,0.007c0.024,0.013,0.049,0.025,0.076,0.039
			c0.202,0.084,0.503,0.218,0.9,0.402c0.35,0.163,0.576,0.364,0.675,0.599c0.096,0.237,0.078,0.538-0.053,0.899
			c-0.152,0.412-0.268,0.721-0.352,0.924c-0.008,0.02-0.014,0.042-0.02,0.063c-0.007,0.015-0.017,0.028-0.023,0.043
			c-0.405,0.977,0.057,2.096,1.036,2.5c0.357,0.148,0.732,0.177,1.085,0.11c0.006-0.001,0.012-0.001,0.018-0.002
			c0.127-0.025,0.251-0.062,0.37-0.112c0.03-0.01,0.062-0.02,0.096-0.03c0.201-0.084,0.51-0.201,0.921-0.352
			c0.362-0.133,0.664-0.151,0.9-0.054c0.234,0.1,0.436,0.325,0.598,0.674c0.185,0.399,0.32,0.699,0.403,0.901
			c0.013,0.028,0.029,0.057,0.045,0.084c0.143,0.353,0.391,0.66,0.722,0.878c0.055,0.036,0.115,0.063,0.173,0.093
			c0.049,0.025,0.092,0.056,0.144,0.078c0.002,0.001,0.003,0.001,0.005,0.002c0.454,0.19,0.98,0.206,1.471,0.003
			c0.493-0.203,0.854-0.588,1.04-1.044c0.015-0.03,0.029-0.057,0.046-0.09c0.084-0.202,0.218-0.503,0.402-0.901
			c0.162-0.35,0.364-0.574,0.599-0.675c0.237-0.094,0.539-0.077,0.9,0.053c0.412,0.151,0.72,0.269,0.923,0.352
			c0.03,0.011,0.06,0.02,0.09,0.03c0.456,0.193,0.984,0.21,1.476,0.005c0.979-0.404,1.441-1.524,1.036-2.5
			C22.836,20.886,21.718,20.423,20.74,20.827z"/>
	</g>
	<g>
		<path fill="#48525A" d="M42.227,32.95h-0.603v-4.535h0.603V32.95z"/>
		<path fill="#48525A" d="M47.262,29.593c0.468,0,0.842,0.15,1.121,0.449s0.419,0.722,0.419,1.268c0,0.544-0.14,0.967-0.419,1.267
			c-0.28,0.3-0.653,0.45-1.121,0.45c-0.466,0-0.839-0.15-1.118-0.45c-0.28-0.3-0.419-0.722-0.419-1.267
			c0-0.546,0.14-0.969,0.419-1.268S46.796,29.593,47.262,29.593z M47.262,32.569c0.278,0,0.504-0.106,0.677-0.317
			s0.26-0.526,0.26-0.942c0-0.419-0.087-0.734-0.26-0.945s-0.399-0.317-0.677-0.317s-0.504,0.106-0.677,0.317
			s-0.26,0.526-0.26,0.945c0,0.416,0.087,0.73,0.26,0.942S46.984,32.569,47.262,32.569z"/>
		<path fill="#48525A" d="M55.455,28.953h-1.5v3.997h-0.603v-3.997h-1.488v-0.538h3.592V28.953z"/>
		<path fill="#48525A" d="M67.445,32.95h-0.569v-3.858l-1.293,3.858h-0.538l-1.293-3.858v3.858h-0.569v-4.535h0.9l1.228,3.78
			l1.234-3.78h0.9V32.95z"/>
		<path fill="#48525A" d="M73.16,32.613c-0.297,0.276-0.679,0.415-1.148,0.415c-0.326,0-0.594-0.088-0.804-0.264
			c-0.21-0.176-0.316-0.404-0.316-0.682c0-0.767,0.661-1.151,1.983-1.151h0.285c0-0.235-0.012-0.406-0.037-0.512
			c-0.025-0.106-0.094-0.195-0.207-0.264c-0.113-0.07-0.294-0.105-0.541-0.105c-0.52,0-0.788,0.186-0.804,0.557h-0.582
			c0.043-0.674,0.515-1.012,1.417-1.012c0.421,0,0.749,0.084,0.984,0.251s0.353,0.495,0.353,0.984v2.122H73.16V32.613z
			 M73.16,32.087V31.36h-0.399c-0.846,0-1.268,0.23-1.268,0.69c0,0.167,0.062,0.295,0.186,0.385c0.124,0.09,0.291,0.135,0.501,0.135
			c0.192,0,0.377-0.043,0.557-0.13C72.916,32.353,73.057,32.235,73.16,32.087z"/>
		<path fill="#48525A" d="M79.383,32.557c-0.26,0.314-0.572,0.47-0.937,0.47c-0.429,0-0.761-0.153-0.996-0.458
			s-0.353-0.717-0.353-1.234c0-0.536,0.131-0.961,0.394-1.273c0.263-0.312,0.594-0.469,0.991-0.469c0.355,0,0.655,0.109,0.9,0.328
			v-1.507h0.582v4.535h-0.582V32.557z M79.383,32.006v-1.559c-0.252-0.266-0.539-0.399-0.863-0.399
			c-0.249,0-0.449,0.108-0.599,0.323s-0.224,0.537-0.224,0.964c0,0.404,0.071,0.711,0.212,0.92s0.337,0.314,0.586,0.314
			C78.821,32.569,79.117,32.382,79.383,32.006z"/>
		<path fill="#48525A" d="M84.922,33.027c-0.483,0-0.87-0.151-1.163-0.453c-0.293-0.302-0.439-0.724-0.439-1.264
			c0-0.536,0.142-0.956,0.425-1.261c0.283-0.304,0.654-0.456,1.112-0.456c0.468,0,0.842,0.15,1.121,0.449s0.419,0.722,0.419,1.268
			v0.139h-2.472c0.025,0.379,0.13,0.661,0.314,0.845c0.184,0.184,0.412,0.275,0.682,0.275c0.204,0,0.388-0.052,0.552-0.156
			c0.164-0.104,0.25-0.252,0.258-0.444h0.603c-0.045,0.338-0.198,0.599-0.459,0.783C85.615,32.936,85.297,33.027,84.922,33.027z
			 M85.782,30.992c-0.048-0.316-0.154-0.552-0.319-0.708c-0.165-0.157-0.367-0.235-0.606-0.235c-0.233,0-0.433,0.078-0.6,0.234
			c-0.167,0.156-0.273,0.392-0.319,0.71H85.782z"/>
		<path fill="#48525A" d="M95.919,33.027c-0.639,0-1.117-0.143-1.434-0.43c-0.317-0.287-0.483-0.655-0.5-1.104h0.578
			c0.031,0.338,0.172,0.588,0.422,0.75c0.251,0.162,0.553,0.243,0.908,0.243c0.336,0,0.607-0.069,0.812-0.207
			c0.205-0.138,0.308-0.326,0.308-0.563c0-0.249-0.106-0.431-0.319-0.544c-0.212-0.113-0.578-0.225-1.097-0.336
			c-0.519-0.11-0.891-0.263-1.117-0.459c-0.226-0.196-0.339-0.457-0.339-0.783c0-0.367,0.147-0.668,0.441-0.903
			s0.684-0.353,1.171-0.353c0.512,0,0.924,0.119,1.237,0.356c0.314,0.237,0.479,0.572,0.498,1.005h-0.585
			c-0.06-0.549-0.435-0.823-1.126-0.823c-0.334,0-0.593,0.063-0.776,0.189s-0.275,0.293-0.275,0.501c0,0.19,0.074,0.332,0.221,0.427
			c0.147,0.095,0.423,0.187,0.826,0.275s0.724,0.176,0.961,0.263c0.237,0.087,0.44,0.221,0.609,0.404
			c0.169,0.183,0.254,0.427,0.254,0.735c0,0.39-0.155,0.713-0.466,0.971S96.418,33.027,95.919,33.027z"/>
		<path fill="#48525A" d="M101.64,29.046h-0.585v-0.631h0.585V29.046z M101.64,32.95h-0.585v-3.282h0.585V32.95z"/>
		<path fill="#48525A" d="M109.635,32.95h-0.585v-2.122c0-0.272-0.039-0.466-0.118-0.582c-0.078-0.116-0.209-0.173-0.393-0.173
			c-0.283,0-0.56,0.175-0.832,0.526v2.351h-0.582v-2.122c0-0.272-0.039-0.466-0.118-0.582c-0.078-0.116-0.21-0.173-0.396-0.173
			c-0.283,0-0.559,0.175-0.829,0.526v2.351h-0.585v-3.282h0.585v0.418c0.276-0.328,0.583-0.492,0.919-0.492
			c0.481,0,0.787,0.198,0.919,0.594c0.218-0.258,0.404-0.421,0.557-0.49c0.153-0.069,0.302-0.104,0.449-0.104
			c0.672,0,1.008,0.403,1.008,1.21V32.95z"/>
		<path fill="#48525A" d="M113.76,30.061c0.26-0.311,0.572-0.467,0.937-0.467c0.429,0,0.761,0.152,0.996,0.456
			c0.235,0.304,0.353,0.715,0.353,1.233c0,0.538-0.131,0.964-0.394,1.276c-0.263,0.312-0.594,0.469-0.995,0.469
			c-0.355,0-0.654-0.11-0.897-0.331v1.516h-0.585v-4.544h0.585V30.061z M113.76,32.17c0.249,0.266,0.536,0.399,0.86,0.399
			c0.252,0,0.452-0.108,0.6-0.323c0.148-0.215,0.223-0.537,0.223-0.964c0-0.404-0.07-0.711-0.21-0.92
			c-0.14-0.209-0.336-0.314-0.588-0.314c-0.324,0-0.619,0.188-0.885,0.563V32.17z"/>
		<path fill="#48525A" d="M119.983,32.95h-0.585v-4.535h0.585V32.95z"/>
		<path fill="#48525A" d="M124.937,33.027c-0.483,0-0.87-0.151-1.163-0.453c-0.293-0.302-0.439-0.724-0.439-1.264
			c0-0.536,0.142-0.956,0.425-1.261c0.283-0.304,0.654-0.456,1.112-0.456c0.468,0,0.842,0.15,1.121,0.449s0.419,0.722,0.419,1.268
			v0.139h-2.472c0.025,0.379,0.13,0.661,0.314,0.845c0.184,0.184,0.412,0.275,0.682,0.275c0.204,0,0.388-0.052,0.552-0.156
			c0.164-0.104,0.25-0.252,0.258-0.444h0.603c-0.045,0.338-0.198,0.599-0.459,0.783C125.63,32.936,125.312,33.027,124.937,33.027z
			 M125.797,30.992c-0.048-0.316-0.154-0.552-0.319-0.708c-0.165-0.157-0.367-0.235-0.606-0.235c-0.233,0-0.433,0.078-0.6,0.234
			c-0.167,0.156-0.273,0.392-0.319,0.71H125.797z"/>
	</g>
</g>
</svg>
