<?xml version='1.0' encoding='iso-8859-1'?>
<svg version="1.1" xmlns="http://www.w3.org/2000/svg" viewBox="0 0 137.144 137.144" xmlns:xlink="http://www.w3.org/1999/xlink" enable-background="new 0 0 137.144 137.144">
  <g>
    <g>
      <path d="m82.287,48.001h27.428c-13.668-13.6-6.894-6.834-20.572-20.572v20.572h-6.856zm6.857-20.572c1.076,0-0.653-0.656 0,0zm20.571,27.429v-6.857 6.857zm-27.428-6.857v-20.571l6.857-.001c-19.213,0-48,0-48,0v54.858h-13.715v13.714h13.714v13.714 0.001h20.571v-0.001h-6.857v-13.714h13.714v-13.714h-13.713v-13.714h-13.714v-6.857h20.571v13.714h13.715v27.429h-13.715v6.856h48c0,0 0-32.033 0-54.857h-27.428v-6.857zm27.428-48.001h-82.286c-15.149,0-27.429,12.281-27.429,27.429v82.286c0,15.149 12.28,27.429 27.429,27.429h82.286c15.148,0 27.429-12.28 27.429-27.429v-82.286c0-15.148-12.28-27.429-27.429-27.429zm13.715,102.858c0,11.361-9.21,20.572-20.571,20.572h-68.573c-11.361,0-20.572-9.21-20.572-20.572v-68.572c0-11.361 9.21-20.572 20.572-20.572h68.572c11.361,0 20.571,9.21 20.571,20.572v68.572z"/>
    </g>
  </g>
</svg>
