<?xml version="1.0" encoding="iso-8859-1"?>
<!-- Generator: Adobe Illustrator 19.0.0, SVG Export Plug-In . SVG Version: 6.00 Build 0)  -->
<svg version="1.1" id="Capa_1" xmlns="http://www.w3.org/2000/svg" xmlns:xlink="http://www.w3.org/1999/xlink" x="0px" y="0px"
	 viewBox="0 0 490 490" style="enable-background:new 0 0 490 490;" xml:space="preserve">
<g>
	<path d="M409.419,310.018H80.57C36.148,310.018,0,346.166,0,390.598c0,44.423,36.148,80.57,80.57,80.57h328.849
		c44.433,0,80.58-36.147,80.58-80.57C490,346.166,453.852,310.018,409.419,310.018z M409.419,450.752H80.57
		c-33.168,0-60.153-26.987-60.153-60.154c0-33.177,26.986-60.162,60.153-60.162h328.849c33.177,0,60.164,26.985,60.164,60.162
		C469.583,423.764,442.596,450.752,409.419,450.752z"/>
	<path d="M412.281,351.131c-21.762,0-39.467,17.705-39.467,39.467c0,21.764,17.705,39.468,39.467,39.468
		c21.762,0,39.467-17.704,39.467-39.468C451.748,368.836,434.043,351.131,412.281,351.131z M412.281,409.648
		c-10.507,0-19.051-8.543-19.051-19.051c0-10.507,8.543-19.051,19.051-19.051c10.507,0,19.051,8.544,19.051,19.051
		C431.331,401.105,422.788,409.648,412.281,409.648z"/>
	<path d="M300.757,351.131c-21.762,0-39.467,17.705-39.467,39.467c0,21.764,17.705,39.468,39.467,39.468
		c21.772,0,39.478-17.704,39.478-39.468C340.234,368.836,322.529,351.131,300.757,351.131z M300.757,409.648
		c-10.507,0-19.051-8.543-19.051-19.051c0-10.507,8.543-19.051,19.051-19.051c10.508,0,19.061,8.544,19.061,19.051
		C319.818,401.105,311.264,409.648,300.757,409.648z"/>
	<path d="M189.233,351.131c-21.762,0-39.467,17.705-39.467,39.467c0,21.764,17.705,39.468,39.467,39.468
		c21.772,0,39.478-17.704,39.478-39.468C228.71,368.836,211.005,351.131,189.233,351.131z M189.233,409.648
		c-10.507,0-19.051-8.543-19.051-19.051c0-10.507,8.544-19.051,19.051-19.051c10.508,0,19.061,8.544,19.061,19.051
		C208.294,401.105,199.74,409.648,189.233,409.648z"/>
	<path d="M77.719,351.131c-21.773,0-39.478,17.705-39.478,39.467c0,21.764,17.704,39.468,39.478,39.468
		c21.762,0,39.468-17.704,39.468-39.468C117.187,368.836,99.481,351.131,77.719,351.131z M77.719,409.648
		c-10.507,0-19.061-8.543-19.061-19.051c0-10.507,8.554-19.051,19.061-19.051c10.507,0,19.051,8.544,19.051,19.051
		C96.77,401.105,88.227,409.648,77.719,409.648z"/>
	<polygon points="202.401,124.158 202.401,196.938 222.818,196.938 222.818,124.158 232.628,136.117 248.419,123.177 212.61,79.532 
		176.801,123.177 192.592,136.117 	"/>
	<polygon points="123.657,124.158 123.657,196.938 144.073,196.938 144.073,124.157 153.893,136.128 169.684,123.168 
		133.865,79.532 98.055,123.177 113.846,136.117 	"/>
	<rect x="105.951" y="209.479" width="134.572" height="20.417"/>
	<path d="M304.146,18.832H42.329v250.692h261.817V18.832z M283.729,249.107H62.745V39.248h220.984V249.107z"/>
	<path d="M375.844,269.275l104.545-90.8L375.844,87.668v55.757h-51.062v70.092h51.062V269.275z M345.198,193.1v-29.26h51.062
		v-31.393l52.985,46.027l-52.985,46.018V193.1H345.198z"/>
</g>
<g>
</g>
<g>
</g>
<g>
</g>
<g>
</g>
<g>
</g>
<g>
</g>
<g>
</g>
<g>
</g>
<g>
</g>
<g>
</g>
<g>
</g>
<g>
</g>
<g>
</g>
<g>
</g>
<g>
</g>
</svg>
