<?xml version="1.0" ?><svg data-name="Layer 1" id="Layer_1" viewBox="0 0 512 512" xmlns="http://www.w3.org/2000/svg"><path d="M348.11,174.32l47.94-47.94h69.5a11.85,11.85,0,0,0,0-23.7h-74.4a11.84,11.84,0,0,0-8.38,3.47l-44.22,44.21,0-.09-67,67c-2.73,18-5.57,34.63-8.48,50.18L350,180.52C349.35,178.32,348.73,176.34,348.11,174.32Z"/><path d="M315.34,129l-.84.05-1.2-.09s-22.54-.42-36.64,60.86l52.66-52.66C321.4,128.68,315.23,128.79,315.34,129Z"/><path d="M357,214.63c-.86-5.73-1.8-11-2.79-16l-96.73,96.74q-6.65,31.1-13.66,55.34L360.1,234.4C359.06,228,358,221.42,357,214.63Z"/><path d="M406.38,143.54a11.85,11.85,0,0,0,0,23.7h39.93a11.85,11.85,0,1,0,0-23.7Z"/><path d="M382.25,340.3q-4.19-15.46-8.25-33.43L271.85,409a136.53,136.53,0,0,0,16.84,24.84Z"/><path d="M252.86,364c3.66,11,7.5,21.08,11.56,30.13L370,288.49c-2.28-11-4.51-22.63-6.69-35Z"/><path d="M480.1,453H433.37c-9.34-10.13-19.27-25.27-29.23-48.17L356,453H333.64l64.08-64.09c-3.53-9.35-7.05-19.64-10.52-31.17l-87.13,87.12.07.05L292.21,453h-6c-17.62-15.92-32.93-41.26-45.68-76.63h0c0-.08-.05-.17-.08-.25-2.46-6.84-4.8-14.11-7.07-21.66-.51-1.7-1-3.43-1.52-5.17-2.23-7.7-4.4-15.63-6.44-24-11.37-47-36-47.12-37.75-47.23-1.95.13-27,.11-38.36,47.23-1.75,7.22-3.6,14.09-5.49,20.79-.49,1.72-1,3.37-1.5,5.07q-2.29,7.76-4.7,15c-.45,1.36-.91,2.71-1.37,4-2,5.89-4.11,11.57-6.27,17h0c-11.9,29.68-25.8,51.58-41.49,65.85H43.75V47.19a11.85,11.85,0,0,0-23.7,0V464.81A11.86,11.86,0,0,0,31.9,476.66H480.1a11.85,11.85,0,0,0,0-23.7Z"/></svg>