<?xml version="1.0" encoding="utf-8"?>
<!-- Generator: Adobe Illustrator 19.2.0, SVG Export Plug-In . SVG Version: 6.00 Build 0)  -->
<svg version="1.1" id="cpuusage" xmlns="http://www.w3.org/2000/svg" xmlns:xlink="http://www.w3.org/1999/xlink" x="0px" y="0px"
	 viewBox="0 0 161.5793 198.2335" enable-background="new 0 0 161.5793 198.2335" xml:space="preserve">
<g>
	<path fill="none" d="M10.1108,47.2159L73.322,92.0987c3.9724,2.8244,10.9492,2.8244,14.9256,0l63.2112-44.8828
		c1.3884-0.9844,2.1776-2.0976,2.1172-2.9804c-0.0628-0.8808-1-1.8732-2.508-2.6524L89.5992,9.8215
		c-2.3476-1.2132-5.58-1.8184-8.8144-1.8184c-3.2324,0-6.4668,0.6052-8.8144,1.8184L10.5016,41.5831
		c-1.502,0.7772-2.4356,1.7696-2.498,2.6564C7.9412,45.1223,8.728,46.2355,10.1108,47.2159z"/>
	<path d="M5.478,53.7395l63.2112,44.8828c3.3924,2.408,7.742,3.6112,12.0956,3.6112c4.3516,0,8.7032-1.2052,12.0956-3.6112
		l63.2092-44.8828c3.7364-2.6504,5.7284-6.3204,5.4668-10.0648c-0.2636-3.744-2.748-7.0956-6.8164-9.1972L93.2712,2.7159
		c-6.998-3.6212-17.9708-3.6212-24.9728,0L6.8296,34.4775c-4.0624,2.0996-6.5428,5.4532-6.8064,9.2012
		C-0.2404,47.4231,1.7496,51.0907,5.478,53.7395z M10.5016,41.5831L71.9704,9.8215c2.3476-1.2132,5.582-1.8184,8.8144-1.8184
		c3.2344,0,6.4668,0.6052,8.8144,1.8184l61.4688,31.7616c1.508,0.7792,2.4452,1.7716,2.508,2.6524
		c0.0604,0.8828-0.7288,1.996-2.1172,2.9804L88.2476,92.0987c-3.9764,2.8244-10.9532,2.8244-14.9256,0L10.1108,47.2159
		c-1.3828-0.9804-2.1696-2.0936-2.1072-2.9764C8.066,43.3527,8.9996,42.3603,10.5016,41.5831z"/>
	<path d="M154.74,66.4775l-3.672,7.1056c1.508,0.7792,2.4452,1.7716,2.508,2.6524c0.0604,0.8828-0.7288,1.996-2.1172,2.9804
		l-63.2112,44.8828c-3.9764,2.8244-10.9532,2.8244-14.9256,0L10.1108,79.2159c-1.3828-0.9804-2.1696-2.0936-2.1072-2.9764
		c0.0624-0.8868,0.996-1.8792,2.498-2.6564l-3.672-7.1056c-4.0624,2.0996-6.5428,5.4532-6.8064,9.2012
		c-0.2636,3.7444,1.7264,7.412,5.4548,10.0608l63.2112,44.8828c3.3924,2.408,7.742,3.6112,12.0956,3.6112
		c4.3516,0,8.7032-1.2052,12.0956-3.6112l63.2092-44.8828c3.7364-2.6504,5.7284-6.3204,5.4668-10.0648
		C161.2928,71.9307,158.8084,68.5791,154.74,66.4775z"/>
	<path d="M154.74,98.4775l-3.672,7.1056c1.508,0.7792,2.4452,1.7716,2.508,2.6524c0.0604,0.8828-0.7288,1.996-2.1172,2.9804
		l-63.2112,44.8828c-3.9764,2.8244-10.9532,2.8244-14.9256,0l-63.2112-44.8828c-1.3828-0.9804-2.1696-2.0936-2.1072-2.9764
		c0.0624-0.8868,0.996-1.8792,2.498-2.6564l-3.672-7.1056c-4.0624,2.0996-6.5428,5.4532-6.8064,9.2012
		c-0.2636,3.7444,1.7264,7.412,5.4548,10.0608l63.2112,44.8828c3.3924,2.408,7.742,3.6112,12.0956,3.6112
		c4.3516,0,8.7032-1.2052,12.0956-3.6112l63.2092-44.8828c3.7364-2.6504,5.7284-6.3204,5.4668-10.0648
		C161.2928,103.9307,158.8084,100.5791,154.74,98.4775z"/>
	<path d="M154.74,130.4775l-3.672,7.1056c1.508,0.7792,2.4452,1.7716,2.508,2.6524c0.0604,0.8828-0.7288,1.996-2.1172,2.9804
		l-63.2112,44.8828c-3.9764,2.8244-10.9532,2.8244-14.9256,0l-63.2112-44.8828c-1.3828-0.9804-2.1696-2.0936-2.1072-2.9764
		c0.0624-0.8868,0.996-1.8792,2.498-2.6564l-3.672-7.1056c-4.0624,2.0996-6.5428,5.4532-6.8064,9.2012
		c-0.2636,3.7444,1.7264,7.412,5.4548,10.0608l63.2112,44.8828c3.3924,2.408,7.742,3.6112,12.0956,3.6112
		c4.3516,0,8.7032-1.2052,12.0956-3.6112l63.2092-44.8828c3.7364-2.6504,5.7284-6.3204,5.4668-10.0648
		C161.2928,135.9307,158.8084,132.5791,154.74,130.4775z"/>
</g>
</svg>
