<?xml version="1.0" encoding="iso-8859-1"?>
<!-- Generator: Adobe Illustrator 16.0.0, SVG Export Plug-In . SVG Version: 6.00 Build 0)  -->
<!DOCTYPE svg PUBLIC "-//W3C//DTD SVG 1.1//EN" "http://www.w3.org/Graphics/SVG/1.1/DTD/svg11.dtd">
<svg version="1.1" id="Capa_1" xmlns="http://www.w3.org/2000/svg" xmlns:xlink="http://www.w3.org/1999/xlink" x="0px" y="0px"
	 width="612px" height="612px" viewBox="0 0 612 612" style="enable-background:new 0 0 612 612;" xml:space="preserve">
<g>
	<g>
		<path d="M548.972,233.143h-72.856V53.429C476.116,23.47,449.401,0,420.579,0H177.722c-3.866,0-6.731,1.612-9.257,4.313
			c-1.642,0.874-3.119,1.923-4.197,3.273L19.165,190.07c-0.097,0.116-0.136,0.262-0.224,0.379l-7.966,9.928
			c-2.098,2.594-1.155,5.818-1.155,9.15v349.044C9.82,587.529,31.075,612,61.141,612h359.428c28.822,0,55.536-23.47,55.536-53.429
			V427.429h72.857c29.502,0,53.429-23.927,53.429-53.429v-87.429C602.401,257.069,578.475,233.143,548.972,233.143z M573.258,374
			c0,13.416-10.87,24.285-24.286,24.285H364.401c-13.415,0-24.285-10.869-24.285-24.285v-87.429
			c0-13.415,10.87-24.286,24.285-24.286h184.571c13.416,0,24.286,10.871,24.286,24.286V374z M165.258,58.402v97.211
			c0,14.076-17.437,28.958-29.998,28.958H62.627l33.835-43.093L165.258,58.402z M446.972,558.571
			c0,13.843-13.706,24.286-26.394,24.286H61.15c-14.018,0-22.178-11.347-22.178-24.286V214.686l0.758-0.971h95.521
			c28.784,0,59.14-27.696,59.14-58.102V29.143h226.177c12.688,0,26.395,10.443,26.395,24.286v179.714h-82.572
			c-29.502,0-53.428,23.927-53.428,53.429V374c0,29.502,23.926,53.429,53.428,53.429h82.572v131.143H446.972z"/>
		<path d="M434.586,361.799l-14.756-22.731l13.717-20.487c2.429-3.623,3.643-6.509,3.643-8.637c0-1.438-0.554-2.71-1.681-3.769
			c-1.127-1.05-2.564-1.583-4.332-1.583c-0.991,0-1.846,0.154-2.594,0.495c-0.748,0.32-1.409,0.835-2.021,1.505
			c-0.593,0.661-1.215,1.496-1.865,2.497c-0.651,1.029-1.438,2.244-2.341,3.662l-11.162,16.894l-10.434-16.894
			c-1.923-3.128-3.429-5.274-4.526-6.431c-1.088-1.156-2.613-1.729-4.575-1.729c-1.71,0-3.157,0.533-4.343,1.583
			c-1.185,1.059-1.768,2.253-1.768,3.584c0,1.302,0.301,2.652,0.913,4.061c0.621,1.399,1.554,3.089,2.788,5.042l13.085,20.206
			l-15.553,22.731c-2.322,3.38-3.478,6.246-3.478,8.577c0,1.991,0.573,3.507,1.69,4.556c1.117,1.04,2.545,1.574,4.255,1.574
			c1.098,0,2.059-0.175,2.875-0.534c0.826-0.341,1.545-0.816,2.146-1.419c0.603-0.592,1.107-1.214,1.535-1.846
			c0.428-0.641,1.146-1.748,2.166-3.322l12.998-19.826l12.24,19.264c1.544,2.369,2.594,3.963,3.167,4.779
			c0.563,0.835,1.321,1.516,2.234,2.068c0.913,0.545,2.03,0.836,3.36,0.836c1.234,0,2.342-0.271,3.322-0.816
			c0.981-0.534,1.739-1.253,2.273-2.186c0.544-0.913,0.815-1.914,0.815-3.031c0-1.155-0.301-2.408-0.913-3.721
			C436.879,365.441,435.917,363.79,434.586,361.799z"/>
		<path d="M490.375,363.732h-28.56V313.13c0-2.885-0.66-5.022-1.972-6.431c-1.312-1.398-3.021-2.107-5.14-2.107
			c-2.088,0-3.778,0.709-5.061,2.127c-1.272,1.428-1.924,3.564-1.924,6.411v53.545c0,3.041,0.681,5.236,2.021,6.606
			c1.341,1.34,3.546,2.03,6.615,2.03h34.02c2.303,0,4.061-0.534,5.256-1.594c1.204-1.049,1.797-2.429,1.797-4.138
			c0-1.69-0.603-3.08-1.816-4.178C494.398,364.285,492.649,363.732,490.375,363.732z"/>
		<path d="M548.73,339.543c-2.225-1.573-4.926-2.924-8.103-4.021c-3.186-1.117-6.731-2.127-10.656-3.031
			c-3.128-0.806-5.372-1.408-6.741-1.807c-1.351-0.418-2.691-0.99-4.022-1.709c-1.321-0.738-2.37-1.594-3.128-2.613
			c-0.758-1.011-1.137-2.205-1.137-3.604c0-2.244,1.107-4.157,3.342-5.771c2.225-1.593,5.158-2.39,8.802-2.39
			c3.914,0,6.761,0.738,8.538,2.196c1.759,1.486,3.284,3.535,4.557,6.148c0.971,1.846,1.874,3.147,2.72,3.964
			c0.845,0.796,2.06,1.214,3.672,1.214c1.769,0,3.255-0.68,4.439-2.03c1.186-1.321,1.777-2.847,1.777-4.517
			c0-1.837-0.466-3.711-1.418-5.654c-0.952-1.914-2.458-3.77-4.517-5.518c-2.05-1.768-4.624-3.167-7.752-4.226
			c-3.119-1.05-6.801-1.583-11.065-1.583c-5.353,0-10.006,0.796-13.949,2.398c-3.954,1.594-6.984,3.887-9.073,6.849
			c-2.079,2.973-3.128,6.373-3.128,10.2c0,4.002,0.99,7.363,2.973,10.073c1.981,2.701,4.643,4.848,8.014,6.402
			c3.371,1.573,7.548,2.934,12.541,4.118c3.74,0.846,6.723,1.643,8.947,2.409c2.225,0.758,4.051,1.856,5.459,3.294
			c1.399,1.447,2.099,3.322,2.099,5.624c0,2.914-1.292,5.323-3.905,7.286c-2.613,1.933-5.993,2.914-10.171,2.914
			c-3.03,0-5.488-0.486-7.363-1.457c-1.855-0.952-3.293-2.186-4.332-3.663c-1.03-1.495-1.982-3.341-2.876-5.556
			c-0.719-1.865-1.593-3.265-2.623-4.217c-1.039-0.951-2.292-1.418-3.769-1.418c-1.846,0-3.352,0.603-4.537,1.816
			c-1.185,1.215-1.787,2.682-1.787,4.381c0,2.944,0.991,5.984,2.973,9.094c1.981,3.108,4.546,5.595,7.713,7.47
			c4.459,2.584,10.112,3.896,16.98,3.896c5.722,0,10.667-0.952,14.844-2.846c4.167-1.904,7.334-4.537,9.511-7.879
			c2.176-3.352,3.254-7.131,3.254-11.346c0-3.508-0.622-6.47-1.875-8.898C552.703,343.128,550.964,341.137,548.73,339.543z"/>
	</g>
</g>
<g>
</g>
<g>
</g>
<g>
</g>
<g>
</g>
<g>
</g>
<g>
</g>
<g>
</g>
<g>
</g>
<g>
</g>
<g>
</g>
<g>
</g>
<g>
</g>
<g>
</g>
<g>
</g>
<g>
</g>
</svg>
