<?xml version="1.0" ?><svg height="256" viewBox="0 0 256 256" width="256" xmlns="http://www.w3.org/2000/svg"><title/><g id="dwg"><g><path d="M82.605,144.637a6.672,6.672,0,0,0,1.665-3.04,20.545,20.545,0,0,0,.645-5.769,18.819,18.819,0,0,0-.645-5.607,7.208,7.208,0,0,0-1.8-3.051,6.053,6.053,0,0,0-2.943-1.482,28.859,28.859,0,0,0-5.221-.3H71.444v20.861h4.748a17.317,17.317,0,0,0,3.846-.3A5.868,5.868,0,0,0,82.605,144.637Z"/><path d="M184,168a8.009,8.009,0,0,0,8-8V112a8.009,8.009,0,0,0-8-8H48a8.009,8.009,0,0,0-8,8v48a8.009,8.009,0,0,0,8,8Zm-44.182-41.045a13.889,13.889,0,0,1,6.037-5.865,16.292,16.292,0,0,1,7.541-1.568q5.865,0,9.162,2.46a11.11,11.11,0,0,1,4.244,6.8l-6.316,1.182a6.679,6.679,0,0,0-2.5-3.663,7.566,7.566,0,0,0-4.586-1.343,8.62,8.62,0,0,0-6.629,2.643q-2.459,2.643-2.459,7.842,0,5.607,2.492,8.411a8.319,8.319,0,0,0,6.531,2.8,10.942,10.942,0,0,0,4.006-.784,13.729,13.729,0,0,0,3.449-1.9v-4H153.5v-5.307h13.707v12.547a17.255,17.255,0,0,1-5.791,3.405,21.072,21.072,0,0,1-7.68,1.472,17.236,17.236,0,0,1-8.615-2.073,13.172,13.172,0,0,1-5.521-5.93,19.152,19.152,0,0,1-1.848-8.39A18.13,18.13,0,0,1,139.818,126.955Zm-39.258-6.9,4.748,21.635,5.758-21.635h7.563l5.521,22,4.834-22h6.4l-7.648,31.5h-6.746l-6.273-23.547-6.252,23.547h-6.9l-7.52-31.5Zm-35.476,0H76.708a22.7,22.7,0,0,1,5.994.6,10.534,10.534,0,0,1,4.748,2.9,13.769,13.769,0,0,1,3.008,5.1,23.247,23.247,0,0,1,1.031,7.444,20.7,20.7,0,0,1-.967,6.7,13.888,13.888,0,0,1-3.373,5.564,11.179,11.179,0,0,1-4.469,2.514,19.229,19.229,0,0,1-5.629.666H65.085Z"/><path d="M200,8H64A16.018,16.018,0,0,0,48,24V96h8V24a8.009,8.009,0,0,1,8-8H200a8.009,8.009,0,0,1,8,8V191.029a8.1,8.1,0,0,1-.065.971H172a12.013,12.013,0,0,0-12,12v35.935a8.113,8.113,0,0,1-.971.065H64a8.009,8.009,0,0,1-8-8V176H48v56a16.018,16.018,0,0,0,16,16h95.029a15.893,15.893,0,0,0,11.313-4.686l40.972-40.971A15.9,15.9,0,0,0,216,191.029V24A16.018,16.018,0,0,0,200,8Z"/></g></g></svg>