<?xml version="1.0" ?><svg height="256" viewBox="0 0 256 256" width="256" xmlns="http://www.w3.org/2000/svg"><title/><g id="cer"><g><path d="M150.785,132.992a3.422,3.422,0,0,0,1.783-1.332,4.1,4.1,0,0,0,.645-2.363,3.783,3.783,0,0,0-.848-2.567,3.9,3.9,0,0,0-2.4-1.235q-.773-.107-4.641-.107h-4.963v7.992h4.705A24.3,24.3,0,0,0,150.785,132.992Z"/><path d="M184,168a8.009,8.009,0,0,0,8-8V112a8.009,8.009,0,0,0-8-8H48a8.009,8.009,0,0,0-8,8v48a8.009,8.009,0,0,0,8,8Zm-49.994-47.941h13.385a22.925,22.925,0,0,1,7.338.849,7.235,7.235,0,0,1,3.662,3.019,9.071,9.071,0,0,1,1.375,4.963,8.406,8.406,0,0,1-2.084,5.854,10,10,0,0,1-6.23,2.911,14.881,14.881,0,0,1,3.406,2.643,35.929,35.929,0,0,1,3.619,5.113l3.846,6.145h-7.605l-4.6-6.854a44.5,44.5,0,0,0-3.352-4.63,4.877,4.877,0,0,0-1.912-1.311,10.48,10.48,0,0,0-3.2-.354h-1.289v13.148h-6.359Zm-29.588,0h23.354v5.328H110.777v6.982H126.59v5.307H110.777v8.572h17.6v5.307H104.418Zm-29.053,3.813a13.922,13.922,0,0,1,10.678-4.351,13.1,13.1,0,0,1,9.389,3.416,12.438,12.438,0,0,1,3.223,5.8l-6.295,1.5a6.506,6.506,0,0,0-6.639-5.285,7.166,7.166,0,0,0-5.683,2.514q-2.181,2.514-2.181,8.143,0,5.973,2.148,8.508a6.974,6.974,0,0,0,5.586,2.535,6.372,6.372,0,0,0,4.361-1.611,9.366,9.366,0,0,0,2.621-5.07l6.166,1.955a13.831,13.831,0,0,1-4.716,7.659,13.449,13.449,0,0,1-8.368,2.5,13.547,13.547,0,0,1-10.312-4.286q-4.04-4.286-4.039-11.72Q71.3,128.223,75.365,123.872Z"/><path d="M200,8H64A16.018,16.018,0,0,0,48,24V96h8V24a8.009,8.009,0,0,1,8-8H200a8.009,8.009,0,0,1,8,8V191.029a8.1,8.1,0,0,1-.065.971H172a12.013,12.013,0,0,0-12,12v35.935a8.112,8.112,0,0,1-.971.065H64a8.009,8.009,0,0,1-8-8V176H48v56a16.018,16.018,0,0,0,16,16h95.029a15.893,15.893,0,0,0,11.313-4.686l40.972-40.971A15.9,15.9,0,0,0,216,191.029V24A16.018,16.018,0,0,0,200,8Z"/></g></g></svg>