<?xml version="1.0" encoding="iso-8859-1"?>
<!-- Generator: Adobe Illustrator 16.0.0, SVG Export Plug-In . SVG Version: 6.00 Build 0)  -->
<!DOCTYPE svg PUBLIC "-//W3C//DTD SVG 1.1//EN" "http://www.w3.org/Graphics/SVG/1.1/DTD/svg11.dtd">
<svg version="1.1" id="Capa_1" xmlns="http://www.w3.org/2000/svg" xmlns:xlink="http://www.w3.org/1999/xlink" x="0px" y="0px"
	 width="611.997px" height="611.997px" viewBox="0 0 611.997 611.997" style="enable-background:new 0 0 611.997 611.997;"
	 xml:space="preserve">
<g>
	<g>
		<path d="M558.587,213.745h-92.253V53.516c0-29.948-26.705-53.41-55.518-53.41H168.044c-3.865,0-6.729,1.612-9.245,4.302
			c-1.641,0.864-3.118,1.923-4.195,3.283L9.553,190.109c-0.098,0.116-0.137,0.262-0.224,0.378l-7.963,9.925
			c-2.098,2.583-1.156,5.827-1.156,9.147v348.922c0,28.949,21.248,53.41,51.302,53.41h359.303c28.812,0,55.517-23.461,55.517-53.41
			V407.963h92.254c29.492,0,53.41-23.918,53.41-53.409v-87.398C611.997,237.663,588.079,213.745,558.587,213.745z M582.864,354.554
			c0,13.41-10.866,24.277-24.277,24.277H374.08c-13.41,0-24.277-10.867-24.277-24.277v-87.398c0-13.411,10.867-24.277,24.277-24.277
			h184.507c13.411,0,24.277,10.866,24.277,24.277V354.554z M155.585,58.487v97.187c0,14.062-17.431,28.938-29.987,28.938H52.98
			l33.823-43.067L155.585,58.487z M437.201,558.481c0,13.838-13.702,24.277-26.385,24.277H51.514
			c-14.013,0-22.169-11.342-22.169-24.277V214.717l0.757-0.972h95.497c28.774,0,59.12-27.686,59.12-58.071V29.238h226.098
			c12.683,0,26.385,10.439,26.385,24.277v160.229H374.08c-29.491,0-53.409,23.918-53.409,53.41v87.398
			c0,29.491,23.918,53.409,53.409,53.409h63.121V558.481L437.201,558.481z"/>
		<path d="M465.527,302.018c-2.66-5.39-6.574-9.546-11.74-12.459c-5.166-2.933-11.352-4.399-18.558-4.399
			c-5.312,0-10.051,0.825-14.227,2.496c-4.175,1.65-7.72,4.049-10.623,7.186c-2.913,3.127-5.128,6.914-6.662,11.371
			c-1.534,4.458-2.302,9.361-2.302,14.703c0,5.214,0.738,10.069,2.205,14.557c1.466,4.486,3.642,8.331,6.525,11.526
			c2.875,3.195,6.458,5.661,10.76,7.419c4.302,1.748,9.167,2.632,14.605,2.632c5.467,0,10.322-0.854,14.557-2.563
			c4.233-1.709,7.808-4.176,10.721-7.4c2.894-3.224,5.078-7.03,6.535-11.42c1.457-4.389,2.186-9.273,2.186-14.653
			C469.509,313.738,468.179,307.407,465.527,302.018z M452.554,334.811c-1.786,3.759-4.186,6.546-7.205,8.342
			c-3.021,1.807-6.332,2.7-9.935,2.7c-2.815,0-5.39-0.515-7.749-1.563c-2.359-1.039-4.447-2.612-6.264-4.72
			c-1.815-2.098-3.224-4.739-4.225-7.934c-0.99-3.205-1.485-6.769-1.485-10.721c0-3.914,0.495-7.448,1.485-10.595
			c1.001-3.146,2.37-5.739,4.079-7.759c1.729-2.021,3.787-3.564,6.166-4.623c2.389-1.059,4.991-1.583,7.808-1.583
			c3.942,0,7.448,0.952,10.497,2.875c3.05,1.903,5.399,4.729,7.041,8.458c1.642,3.729,2.467,8.138,2.467,13.227
			C455.234,326.421,454.351,331.043,452.554,334.811z"/>
		<path d="M522.997,286.354h-44.758c-2.321,0-4.068,0.515-5.292,1.563c-1.214,1.039-1.826,2.467-1.826,4.264
			c0,1.737,0.583,3.136,1.758,4.204c1.165,1.049,2.942,1.583,5.36,1.583h15.353v50.497c0,2.874,0.661,5.03,1.972,6.448
			c1.311,1.428,3.011,2.136,5.099,2.136c2.049,0,3.729-0.698,5.03-2.116c1.281-1.398,1.941-3.555,1.941-6.468v-50.497h15.363
			c2.398,0,4.204-0.533,5.399-1.582c1.194-1.068,1.806-2.467,1.806-4.205s-0.592-3.146-1.787-4.215
			C527.23,286.888,525.425,286.354,522.997,286.354z"/>
	</g>
</g>
<g>
</g>
<g>
</g>
<g>
</g>
<g>
</g>
<g>
</g>
<g>
</g>
<g>
</g>
<g>
</g>
<g>
</g>
<g>
</g>
<g>
</g>
<g>
</g>
<g>
</g>
<g>
</g>
<g>
</g>
</svg>
