<?xml version="1.0" ?><svg height="256" viewBox="0 0 256 256" width="256" xmlns="http://www.w3.org/2000/svg"><title/><g id="xml"><g><path d="M184,168a8.009,8.009,0,0,0,8-8V112a8.009,8.009,0,0,0-8-8H48a8.009,8.009,0,0,0-8,8v48a8.009,8.009,0,0,0,8,8Zm-44.559-47.684H145.8v25.932h15.813v5.307H139.441Zm-37.129-.258h9.518l5.715,21.484,5.65-21.484h9.54v31.5h-5.909V126.762l-6.252,24.793h-6.123l-6.23-24.793v24.793h-5.908Zm-31.673,0h7.434l6.316,10.119,6.188-10.119h7.369l-9.8,15.3,10.764,16.2h-7.67L84.26,140.662l-7,10.893H69.629l10.764-16.436Z"/><path d="M200,8H64A16.018,16.018,0,0,0,48,24V96h8V24a8.009,8.009,0,0,1,8-8H200a8.009,8.009,0,0,1,8,8V191.029a8.1,8.1,0,0,1-.065.971H172a12.013,12.013,0,0,0-12,12v35.935a8.113,8.113,0,0,1-.971.065H64a8.009,8.009,0,0,1-8-8V176H48v56a16.018,16.018,0,0,0,16,16h95.029a15.893,15.893,0,0,0,11.313-4.686l40.972-40.971A15.9,15.9,0,0,0,216,191.029V24A16.018,16.018,0,0,0,200,8Z"/></g></g></svg>