<?xml version="1.0" encoding="iso-8859-1"?>
<!-- Generator: Adobe Illustrator 22.0.1, SVG Export Plug-In . SVG Version: 6.00 Build 0)  -->
<svg version="1.1" id="Layer_1_1_" xmlns="http://www.w3.org/2000/svg" xmlns:xlink="http://www.w3.org/1999/xlink" x="0px" y="0px"
	 viewBox="0 0 64 64" style="enable-background:new 0 0 64 64;" xml:space="preserve">
<g id="Guide">
</g>
<path d="M7,20h3.523l-1.2,3H7v2h3h4v2h2v-2h4h3v-2h-2.323l-1.2-3H23c0.931,0,1.794-0.272,2.541-0.718l0.498,0.954l1.773-0.926
	l-0.743-1.424C27.65,17.069,28,16.077,28,15v-4h2V9h-2V7c0-2.757-2.243-5-5-5H7C4.243,2,2,4.243,2,7v8C2,17.757,4.243,20,7,20z
	 M18.523,23h-7.046l1.2-3h4.646L18.523,23z M18,18h-6H7c-1.654,0-3-1.346-3-3h22c0,1.654-1.346,3-3,3H18z M7,4h16
	c1.654,0,3,1.346,3,3v6H4V7C4,5.346,5.346,4,7,4z"/>
<path d="M57,2H41c-2.757,0-5,2.243-5,5v2h-4v2h4v4c0,1.077,0.35,2.069,0.931,2.886l-0.743,1.424l1.773,0.926l0.498-0.954
	C39.206,19.727,40.069,20,41,20h3.523l-1.2,3H41v2h3h4v2h2v-2h4h3v-2h-2.323l-1.2-3H57c2.757,0,5-2.243,5-5V7
	C62,4.243,59.757,2,57,2z M41,4h16c1.654,0,3,1.346,3,3v6H38V7C38,5.346,39.346,4,41,4z M52.523,23h-7.046l1.2-3h4.646L52.523,23z
	 M57,18h-5h-6h-5c-1.654,0-3-1.346-3-3h22C60,16.654,58.654,18,57,18z"/>
<path d="M7,57h3.523l-1.2,3H7v2h3h10h3v-2h-2.323l-1.2-3H23c2.757,0,5-2.243,5-5v-4h4v-2h-4v-2c0-1.077-0.35-2.069-0.932-2.886
	l0.717-1.374l-1.773-0.925l-0.471,0.902c-0.747-0.445-1.61-0.718-2.541-0.718h-7v-2h-2v2H7c-2.757,0-5,2.243-5,5v8
	C2,54.757,4.243,57,7,57z M18.523,60h-7.046l1.2-3h4.646L18.523,60z M23,55h-5h-6H7c-1.654,0-3-1.346-3-3h22
	C26,53.654,24.654,55,23,55z M7,41h16c1.654,0,3,1.346,3,3v6H4v-6C4,42.346,5.346,41,7,41z"/>
<path d="M57,39h-7v-2h-2v2h-7c-0.931,0-1.794,0.273-2.541,0.718l-0.471-0.902l-1.773,0.925l0.717,1.374
	C36.35,41.931,36,42.923,36,44v2h-2v2h2v4c0,2.757,2.243,5,5,5h3.523l-1.2,3H41v2h3h10h3v-2h-2.323l-1.2-3H57c2.757,0,5-2.243,5-5
	v-8C62,41.243,59.757,39,57,39z M57,41c1.654,0,3,1.346,3,3v6H38v-6c0-1.654,1.346-3,3-3H57z M52.523,60h-7.046l1.2-3h4.646
	L52.523,60z M57,55h-5h-6h-5c-1.654,0-3-1.346-3-3h22C60,53.654,58.654,55,57,55z"/>
<rect x="29.164" y="24.984" transform="matrix(0.8866 -0.4625 0.4625 0.8866 -8.5978 16.8974)" width="2" height="2"/>
<rect x="34.715" y="35.624" transform="matrix(0.8866 -0.4625 0.4625 0.8866 -12.8892 20.6712)" width="2" height="2"/>
<rect x="32.863" y="32.078" transform="matrix(0.8865 -0.4627 0.4627 0.8865 -11.4622 19.423)" width="2.001" height="2"/>
<polygon points="32,28.405 31.562,28.176 31.235,28.804 30.664,29.102 30.872,29.5 30.637,29.949 31.282,30.286 31.589,30.875 
	32,30.661 32.411,30.875 32.718,30.286 33.363,29.949 33.128,29.5 33.336,29.102 32.765,28.804 32.438,28.176 "/>
<rect x="27.312" y="21.439" transform="matrix(0.8865 -0.4627 0.4627 0.8865 -7.1697 15.6471)" width="2.001" height="2"/>
<rect x="27.287" y="35.613" transform="matrix(0.4625 -0.8866 0.8866 0.4625 -17.2579 44.7587)" width="2" height="2"/>
<rect x="29.131" y="32.07" transform="matrix(0.4628 -0.8865 0.8865 0.4628 -13.129 44.4762)" width="2" height="2.001"/>
<rect x="32.832" y="24.979" transform="matrix(0.4624 -0.8867 0.8867 0.4624 -4.8463 43.9652)" width="2" height="2"/>
<rect x="34.682" y="21.431" transform="matrix(0.4628 -0.8865 0.8865 0.4628 -0.7161 43.6812)" width="2" height="2.001"/>
<rect x="14" y="33" width="2" height="2"/>
<rect x="14" y="29" width="2" height="2"/>
<rect x="48" y="33" width="2" height="2"/>
<rect x="48" y="29" width="2" height="2"/>
</svg>
