<?xml version='1.0' encoding='iso-8859-1'?>
<svg version="1.1" xmlns="http://www.w3.org/2000/svg" viewBox="0 0 29.988 29.988" xmlns:xlink="http://www.w3.org/1999/xlink" enable-background="new 0 0 29.988 29.988">
  <g>
    <g>
      <path fill-rule="evenodd" d="m29.209,10.154l-9.839-9.862c-0.388-0.389-1.018-0.389-1.406,0-3.105,3.113-3.105,8.159 0,11.271 3.106,3.112 8.14,3.112 11.245,0 0.388-0.389 0.388-1.02 3.55271e-15-1.409zm-9.84,0c-2.088-2.093-2.289-5.344-0.632-7.678l8.292,8.311c-2.328,1.661-5.571,1.46-7.66-0.633zm2.911,8.862c-0.388-0.389-1.017-0.389-1.406,0l-3.22,5.227c-0.388,0.39-0.388,1.019 0,1.409l4.038,4.044c0.388,0.39 1.018,0.39 1.406,0l3.22-5.227c0.388-0.389 0.388-1.02 0-1.408l-4.038-4.045zm-.134,8.41l-2.383-2.479 2.033-3.599 2.414,2.417-2.064,3.661zm-1.371-11.637l-7.028-7.044c-0.388-0.39-1.018-0.39-1.406,0l-7.028,7.044c-0.388,0.389-0.388,1.02 0,1.409l1.406,1.408-2.109,2.114c-0.388,0.39-0.388,1.021 0,1.409l2.811,2.817c0.388,0.39 1.017,0.39 1.406,0l2.108-2.113 1.406,1.409c0.388,0.39 1.018,0.39 1.406,0l7.028-7.044c0.388-0.389 0.388-1.02-3.55271e-15-1.409zm-12.651,7.044l-1.405-1.408 1.405-1.409 1.406,1.409-1.406,1.408zm4.92-.704l-5.622-5.636 5.622-5.635 5.623,5.635-5.623,5.636zm13.354-17.611c0.388-0.389 0.388-1.02 0-1.408-0.388-0.39-1.018-0.39-1.406,0-0.388,0.389-0.388,1.019 0,1.408 0.388,0.39 1.017,0.39 1.406,0zm-20.175,8.462l3.22-5.227c0.388-0.39 0.388-1.02 0-1.409l-4.038-4.044c-0.388-0.389-1.018-0.389-1.405,0l-3.22,5.227c-0.388,0.389-0.388,1.02 0,1.408l4.038,4.045c0.387,0.389 1.017,0.389 1.405,0zm-1.302-8.348l2.414,2.416-2.064,3.662-2.383-2.479 2.033-3.599z"/>
    </g>
  </g>
</svg>
